<?xml version="1.0" standalone="no"?>
<!DOCTYPE svg PUBLIC "-//W3C//DTD SVG 20010904//EN"
 "http://www.w3.org/TR/2001/REC-SVG-20010904/DTD/svg10.dtd">
<svg version="1.0" xmlns="http://www.w3.org/2000/svg"
 width="1600.000000pt" height="1600.000000pt" viewBox="0 0 1600.000000 1600.000000"
 preserveAspectRatio="xMidYMid meet">
<metadata>
Created by potrace 1.14, written by Peter Selinger 2001-2017
</metadata>
<g transform="translate(0.000000,1600.000000) scale(0.100000,-0.100000)"
fill="#000000" stroke="none">
<path d="M7153 15985 c-6 -7 -9 -17 -5 -21 4 -5 0 -3 -9 4 -9 6 -19 9 -22 5
-4 -3 -7 0 -7 8 -1 10 -3 10 -10 -3 -8 -13 -17 -15 -39 -8 -25 7 -29 6 -24 -7
5 -13 2 -13 -14 -5 -15 8 -23 8 -32 -1 -9 -9 -14 -9 -20 2 -7 10 -9 11 -13 1
-2 -7 -15 -15 -29 -17 -19 -2 -21 -1 -9 7 8 5 10 10 5 10 -6 0 -16 -5 -21 -10
-6 -6 -25 -12 -42 -13 -18 -1 -32 -5 -32 -9 0 -4 -9 -5 -20 -3 -11 2 -20 0
-20 -5 0 -5 -14 -8 -30 -6 -22 2 -28 0 -21 -8 7 -8 4 -12 -9 -12 -10 0 -16 5
-12 11 3 5 -2 4 -11 -3 -9 -8 -21 -11 -27 -7 -5 3 -10 0 -10 -7 0 -7 -11 -14
-25 -14 -16 -1 -23 2 -18 10 3 6 -4 1 -16 -11 -22 -24 -37 -31 -26 -13 3 6 -1
7 -9 4 -9 -3 -16 -11 -16 -18 0 -7 -3 -6 -9 2 -6 11 -10 10 -15 -3 -3 -10 -12
-15 -21 -11 -8 3 -21 -2 -30 -10 -11 -12 -15 -12 -15 -2 0 10 -3 9 -10 -2 -5
-8 -10 -11 -10 -6 0 4 -11 1 -25 -8 -13 -9 -33 -16 -45 -16 -11 0 -20 -5 -20
-11 0 -6 -9 -9 -20 -6 -11 3 -23 0 -27 -5 -4 -7 -1 -8 7 -3 9 5 11 4 6 -3 -4
-7 -19 -12 -34 -12 -22 0 -24 -2 -12 -11 12 -9 11 -10 -7 -6 -13 3 -23 1 -23
-5 0 -5 -5 -6 -12 -2 -8 5 -9 2 -5 -10 4 -10 3 -15 -4 -11 -5 4 -17 1 -26 -7
-14 -11 -16 -11 -9 2 4 8 1 7 -7 -3 -9 -10 -18 -17 -21 -15 -3 2 -15 -5 -26
-14 -11 -10 -27 -18 -35 -18 -8 0 -15 -4 -15 -10 0 -5 -7 -10 -15 -10 -8 0
-15 -8 -16 -17 0 -17 -1 -17 -7 -1 -6 15 -10 13 -32 -13 -22 -28 -25 -29 -31
-13 -7 18 -8 18 -8 0 -1 -22 -28 -45 -53 -46 -10 0 -18 -4 -18 -10 0 -5 -7
-10 -15 -10 -9 0 -12 -6 -9 -15 4 -11 2 -13 -9 -9 -10 3 -20 -3 -27 -16 -7
-12 -18 -19 -26 -16 -8 3 -14 -1 -14 -9 0 -8 -5 -15 -11 -15 -5 0 -7 -6 -3
-12 4 -7 4 -10 -1 -6 -12 11 -45 -10 -46 -30 0 -9 -3 -12 -5 -5 -4 8 -11 7
-23 -5 -10 -9 -16 -20 -14 -24 2 -5 -2 -8 -9 -8 -15 0 -48 -35 -48 -51 0 -6
-7 -8 -16 -5 -12 5 -15 2 -10 -10 4 -12 2 -15 -9 -10 -9 3 -15 0 -15 -9 0 -8
-8 -15 -17 -15 -15 0 -16 -2 -3 -10 13 -8 13 -10 -1 -10 -9 0 -19 -10 -22 -21
-4 -15 -11 -20 -22 -15 -9 3 -13 2 -10 -4 4 -6 -10 -25 -29 -42 -20 -17 -36
-38 -36 -45 0 -8 -4 -11 -10 -8 -5 3 -10 0 -10 -8 0 -8 -7 -17 -15 -21 -9 -3
-12 -12 -8 -22 4 -11 2 -15 -4 -11 -11 7 -50 -30 -40 -39 3 -3 -3 -14 -14 -25
-11 -11 -17 -25 -13 -31 4 -6 3 -9 -2 -6 -5 3 -14 0 -21 -7 -10 -11 -10 -15 0
-18 7 -3 4 -6 -6 -6 -10 -1 -15 -6 -12 -11 3 -6 0 -13 -9 -16 -9 -3 -12 -12
-9 -21 4 -11 2 -14 -5 -9 -8 5 -12 0 -12 -13 0 -12 -4 -21 -10 -21 -5 0 -10
-5 -10 -12 0 -6 -6 -19 -14 -27 -8 -9 -16 -23 -18 -31 -2 -8 -10 -21 -18 -28
-13 -12 -13 -13 0 -6 8 4 5 -4 -7 -18 -13 -13 -23 -34 -23 -46 0 -12 -5 -22
-10 -22 -6 0 -9 -3 -9 -7 4 -22 -2 -33 -13 -27 -8 5 -7 0 2 -11 9 -11 10 -16
3 -11 -12 7 -19 -12 -14 -38 1 -5 -6 -17 -15 -27 -9 -10 -13 -23 -9 -29 4 -7
4 -15 -1 -19 -5 -3 -17 -21 -27 -39 -16 -28 -17 -35 -5 -49 7 -9 8 -14 2 -10
-7 4 -15 0 -18 -9 -4 -10 -2 -13 7 -8 6 4 4 -2 -6 -13 -13 -14 -15 -23 -7 -28
8 -5 8 -11 -1 -21 -6 -8 -8 -14 -4 -14 4 0 0 -11 -8 -24 -12 -18 -13 -26 -4
-36 9 -10 9 -11 0 -6 -8 4 -13 1 -13 -8 0 -9 6 -16 13 -16 9 0 9 -2 -1 -9 -7
-4 -12 -14 -10 -22 2 -8 -2 -13 -7 -12 -6 1 -12 -8 -12 -20 -2 -17 0 -19 7 -7
8 13 10 12 10 -2 0 -10 -5 -18 -11 -18 -8 0 -7 -6 2 -17 10 -11 10 -14 2 -9
-9 5 -13 -2 -13 -24 l0 -30 -75 1 c-42 1 -78 -1 -82 -4 -3 -4 -14 -2 -24 4
-13 7 -19 6 -19 -1 0 -6 -5 -8 -11 -4 -13 8 -419 8 -426 0 -3 -3 -14 -1 -24 5
-13 7 -19 6 -19 -1 0 -6 -5 -8 -11 -4 -14 8 -556 7 -569 -1 -6 -3 -10 -3 -10
2 0 9 -123 8 -146 -1 -8 -3 -14 -2 -14 2 0 8 -124 6 -146 -2 -8 -3 -14 -2 -14
2 0 8 -124 6 -146 -2 -8 -3 -14 -2 -14 2 0 4 -28 6 -62 5 -35 -1 -110 -3 -168
-3 -71 0 -100 -4 -90 -10 9 -6 10 -10 3 -10 -6 0 -15 5 -18 10 -3 6 -11 10
-16 10 -6 0 -7 -5 -3 -11 4 -7 -1 -7 -16 1 -15 8 -20 8 -16 1 5 -7 -3 -11 -21
-11 -16 0 -34 -5 -40 -11 -8 -8 -13 -8 -17 0 -5 8 -13 8 -27 1 -11 -6 -25 -8
-31 -4 -8 5 -9 2 -4 -11 5 -15 4 -16 -9 -5 -10 8 -15 9 -15 1 0 -6 -5 -11 -11
-11 -5 0 -8 4 -5 8 3 5 -1 9 -9 9 -8 0 -13 -5 -12 -11 1 -6 -4 -10 -10 -9 -7
2 -13 -2 -13 -8 0 -8 -5 -7 -15 1 -13 11 -14 10 -9 -3 4 -12 1 -15 -15 -12
-12 2 -21 0 -21 -6 0 -5 -7 -9 -16 -9 -8 0 -23 -7 -31 -16 -13 -13 -17 -13
-24 -2 -7 10 -9 10 -9 1 0 -7 -7 -13 -16 -13 -8 0 -12 -5 -9 -10 4 -6 3 -10
-2 -9 -22 4 -43 -2 -38 -11 3 -5 -3 -10 -15 -10 -12 0 -18 -4 -15 -10 4 -6 -6
-10 -22 -10 -17 0 -23 -3 -16 -8 9 -6 6 -11 -8 -21 -16 -9 -19 -9 -14 0 5 8 4
10 -3 5 -7 -4 -12 -14 -12 -22 0 -8 -4 -12 -10 -9 -6 3 -10 1 -10 -5 0 -6 -10
-15 -22 -20 -14 -5 -17 -9 -8 -10 8 0 0 -8 -18 -16 -21 -11 -32 -24 -32 -38 0
-15 -3 -17 -9 -8 -7 11 -10 10 -15 -3 -3 -9 -4 -21 -1 -26 4 -5 -2 -6 -12 -2
-10 3 -15 3 -11 -2 4 -4 -1 -16 -13 -26 -14 -12 -16 -18 -7 -22 8 -4 7 -6 -4
-6 -10 -1 -17 -7 -15 -13 1 -7 -3 -12 -10 -11 -8 2 -10 -4 -6 -14 5 -12 2 -15
-10 -10 -11 4 -14 2 -11 -8 3 -7 -3 -26 -13 -42 -17 -27 -17 -28 2 -13 19 15
19 14 0 -12 -11 -15 -24 -28 -29 -28 -5 0 -2 -8 5 -17 10 -11 10 -14 2 -9 -13
7 -17 -4 -14 -33 2 -8 -3 -10 -11 -6 -10 6 -11 5 -1 -6 7 -7 13 -18 13 -23 0
-6 -5 -4 -10 4 -8 12 -10 9 -10 -13 0 -18 -4 -26 -11 -21 -7 4 -7 -1 1 -16 7
-13 8 -20 2 -16 -6 4 -10 -5 -10 -21 1 -48 -2 -64 -10 -59 -4 2 -8 -7 -9 -22
-2 -24 -1 -24 7 -7 6 14 9 16 9 4 1 -8 -4 -20 -10 -26 -6 -6 -10 -51 -9 -109
1 -54 1 -110 0 -124 -2 -32 -2 -107 0 -193 1 -37 0 -71 -4 -74 -3 -3 -1 -14 4
-24 6 -10 6 -20 2 -23 -7 -4 -8 -37 -2 -56 1 -3 1 -34 0 -70 -2 -108 -2 -160
0 -270 1 -58 1 -109 -1 -115 -1 -5 0 -14 1 -20 2 -12 2 -127 0 -140 -2 -5 -1
-14 0 -20 2 -12 2 -127 0 -140 -2 -5 -1 -14 0 -20 2 -12 2 -127 0 -140 -2 -5
-1 -14 0 -20 1 -5 1 -32 1 -60 -3 -173 -2 -346 3 -354 4 -5 2 -12 -2 -15 -7
-4 -8 -36 -2 -56 1 -3 1 -30 1 -60 -3 -187 -2 -341 3 -349 4 -5 2 -12 -2 -15
-7 -4 -8 -36 -2 -56 1 -3 1 -34 0 -70 0 -36 -1 -85 -2 -110 0 -25 0 -94 1
-155 1 -60 1 -114 0 -120 -1 -5 0 -14 1 -20 2 -12 2 -127 0 -140 -2 -5 -1 -14
0 -20 2 -12 2 -127 0 -140 -2 -5 -1 -14 0 -20 2 -12 2 -127 0 -140 -2 -5 -1
-14 0 -20 1 -5 1 -37 1 -70 -3 -117 -3 -161 -1 -233 1 -40 0 -76 -4 -79 -3 -3
-1 -14 4 -24 6 -10 6 -20 2 -23 -7 -4 -8 -37 -2 -56 1 -3 1 -34 0 -70 -2 -122
-2 -155 0 -228 1 -40 0 -76 -4 -79 -3 -3 -1 -14 4 -24 6 -10 6 -20 2 -23 -7
-4 -8 -37 -2 -56 1 -3 1 -34 0 -70 0 -36 -1 -85 -2 -110 0 -25 0 -70 1 -100 1
-30 1 -127 1 -214 0 -88 2 -162 5 -164 3 -3 1 -10 -4 -16 -4 -6 -5 -38 -2 -72
4 -33 4 -75 0 -92 -3 -17 -3 -36 2 -43 4 -7 5 -18 1 -23 -9 -16 -10 -46 0 -52
4 -3 6 -10 2 -16 -5 -8 -7 -296 -3 -326 1 -4 1 -11 -1 -17 -2 -12 -2 -198 1
-211 1 -5 0 -11 -1 -14 -6 -17 -5 -52 2 -56 4 -3 6 -10 2 -16 -7 -11 -6 -319
1 -326 3 -3 1 -10 -4 -16 -4 -6 -5 -38 -2 -72 4 -33 4 -75 0 -92 -3 -17 -3
-36 2 -43 4 -7 5 -18 1 -23 -9 -16 -10 -46 0 -52 4 -3 6 -10 2 -16 -7 -11 -6
-316 1 -328 3 -5 1 -11 -4 -15 -5 -3 -8 -15 -5 -28 6 -34 7 -147 0 -154 -3 -3
-1 -14 4 -24 6 -10 6 -20 1 -23 -4 -3 -7 -18 -5 -33 3 -30 4 -77 3 -286 0 -75
2 -141 6 -146 3 -5 1 -12 -3 -15 -5 -3 -8 -18 -6 -33 4 -29 4 -63 3 -286 0
-75 2 -141 6 -146 3 -5 1 -12 -3 -15 -7 -4 -8 -36 -2 -56 1 -3 1 -34 0 -70 0
-36 -1 -85 -2 -110 0 -25 0 -94 1 -155 1 -60 1 -114 0 -120 -1 -5 0 -14 1 -20
2 -12 2 -127 0 -140 -2 -5 -1 -14 0 -20 2 -12 2 -127 0 -140 -2 -5 -1 -14 0
-20 2 -12 2 -127 0 -140 -2 -5 -1 -14 0 -20 1 -5 1 -37 1 -70 -3 -117 -3 -161
-1 -233 1 -40 0 -76 -4 -79 -3 -3 -1 -14 4 -24 6 -10 6 -20 2 -23 -7 -4 -8
-37 -2 -56 1 -3 1 -34 0 -70 -2 -122 -2 -155 0 -228 1 -40 0 -76 -4 -79 -3 -3
-1 -14 5 -24 7 -13 6 -19 -1 -19 -6 0 -8 -5 -5 -10 4 -6 7 -47 7 -90 0 -44 4
-78 8 -75 4 3 10 -9 12 -25 3 -17 1 -30 -4 -30 -5 0 1 -18 12 -40 22 -44 25
-54 10 -45 -5 3 -3 -7 5 -21 8 -15 12 -31 9 -36 -3 -4 0 -8 6 -8 7 0 10 -7 7
-15 -4 -8 -1 -17 5 -21 7 -5 8 -2 3 6 -5 8 -4 11 3 7 5 -4 8 -17 4 -29 -4 -16
-2 -19 8 -13 10 6 12 4 7 -8 -3 -10 -2 -17 3 -17 6 0 9 -6 7 -13 -1 -6 4 -11
10 -10 7 2 12 0 12 -5 -4 -21 2 -43 10 -38 4 3 7 -5 6 -19 -2 -14 1 -22 8 -19
7 2 18 -10 26 -27 8 -17 22 -34 32 -36 11 -3 19 -14 19 -25 0 -10 4 -16 10
-13 5 3 10 -1 10 -9 0 -9 9 -16 20 -16 11 0 20 -7 20 -15 0 -9 8 -19 17 -22
29 -11 45 -30 30 -36 -6 -3 3 -6 20 -6 21 -1 32 -6 30 -13 -1 -7 4 -12 11 -11
6 2 12 -2 12 -7 0 -6 7 -10 16 -10 10 0 14 -6 11 -14 -4 -11 1 -13 19 -10 16
3 23 1 19 -6 -3 -5 1 -10 9 -10 9 0 16 -4 16 -10 0 -5 5 -10 11 -10 5 0 7 5 4
10 -3 6 -2 10 3 10 6 0 12 -7 16 -15 3 -8 12 -15 20 -15 8 0 20 -8 26 -17 11
-17 11 -17 6 0 -5 15 -3 16 15 7 11 -6 17 -15 14 -20 -3 -4 4 -6 15 -3 13 3
20 0 20 -8 0 -11 2 -11 10 1 7 11 10 11 10 2 0 -7 4 -10 10 -7 5 3 10 2 10 -3
0 -14 48 -21 54 -8 3 7 5 6 5 -2 1 -7 6 -10 11 -7 5 3 10 0 10 -7 0 -9 3 -9
10 2 8 12 10 12 10 1 0 -8 7 -11 20 -8 11 3 20 0 20 -6 0 -8 4 -7 9 2 7 10 9
11 13 1 2 -8 12 -14 21 -16 9 -1 15 1 12 5 -2 4 2 8 10 8 8 0 12 -4 10 -7 -3
-4 220 -8 495 -8 275 0 504 -3 509 -6 5 -4 12 -3 15 2 2 4 33 5 68 2 35 -3 84
-3 111 0 26 3 53 3 59 -1 7 -5 17 -4 23 1 6 5 16 5 23 1 7 -4 34 -5 60 -2 26
4 66 4 90 0 24 -3 45 -3 47 1 2 3 32 3 67 0 35 -3 84 -3 111 0 26 3 53 3 59
-1 7 -5 17 -4 23 1 6 5 16 5 23 1 7 -4 34 -5 60 -2 26 4 66 4 90 0 24 -3 45
-3 47 1 2 3 32 3 67 0 35 -3 84 -3 111 0 26 3 53 3 59 -1 7 -5 17 -4 23 1 6 5
16 5 23 1 7 -4 34 -5 60 -2 26 4 66 4 90 0 24 -3 45 -3 47 1 2 3 32 3 67 0 35
-3 84 -3 111 0 26 3 53 3 59 -1 7 -5 17 -4 23 1 6 5 16 5 23 1 7 -4 34 -5 60
-2 26 4 66 4 90 0 24 -3 45 -3 47 1 2 3 32 3 67 0 35 -3 84 -3 110 0 26 3 54
2 62 -2 8 -5 17 -4 21 2 4 7 12 7 24 0 10 -5 21 -7 23 -4 3 2 34 4 69 4 35 0
73 -1 84 0 11 0 29 0 40 0 11 -1 25 -1 30 -1 34 1 1276 2 1349 1 48 -1 90 1
93 4 3 3 14 1 24 -4 12 -7 20 -7 24 0 4 7 12 7 24 0 10 -5 21 -7 23 -4 3 2 34
4 69 4 35 0 72 -1 82 0 28 0 48 0 139 0 47 0 90 0 95 1 4 1 13 0 18 -1 6 -1
32 -1 58 0 141 5 167 4 167 -2 0 -4 13 -3 29 2 17 5 33 4 39 -2 6 -6 12 -6 17
3 5 8 4 10 -3 5 -11 -7 -17 7 -12 29 1 6 -1 7 -5 3 -9 -8 -40 21 -40 36 0 6
-7 11 -15 11 -8 1 -14 6 -13 12 2 7 -6 10 -18 8 -18 -4 -19 -2 -8 13 7 9 10
14 5 10 -4 -4 -18 4 -31 17 -12 14 -25 22 -28 18 -4 -3 -7 2 -7 11 0 13 -5 16
-16 12 -15 -6 -15 -4 -3 11 8 9 9 14 3 10 -7 -4 -14 0 -18 8 -3 8 -13 15 -22
15 -10 0 -15 3 -11 6 6 6 -37 54 -49 54 -9 0 -44 41 -44 52 0 5 -4 6 -10 3 -5
-3 -10 1 -10 9 0 9 -7 16 -15 16 -9 0 -18 7 -21 15 -4 8 -11 12 -18 8 -6 -4
-5 1 3 11 8 9 10 16 5 15 -16 -4 -44 13 -38 22 3 5 0 9 -5 9 -17 0 -127 116
-123 129 2 6 0 11 -5 10 -21 -4 -34 2 -27 13 5 8 2 9 -10 5 -9 -4 -14 -3 -11
2 3 5 1 12 -5 16 -6 4 -7 12 -3 18 4 7 -2 5 -12 -3 -11 -9 -16 -10 -11 -2 4 7
1 15 -9 18 -9 4 -14 13 -11 20 3 8 2 13 -2 13 -20 -3 -33 2 -27 11 3 6 -4 10
-17 10 -18 0 -20 2 -8 10 13 8 12 10 -3 10 -10 0 -15 5 -12 10 3 6 -4 10 -17
11 -13 0 -18 3 -11 6 10 3 10 7 0 18 -7 7 -15 11 -19 8 -5 -2 -8 1 -8 7 0 14
-20 34 -42 43 -10 3 -18 14 -18 22 0 9 -4 13 -10 10 -5 -3 -10 2 -10 12 0 15
-2 16 -10 3 -8 -13 -10 -12 -10 3 0 9 -4 17 -10 17 -5 0 -10 7 -10 16 0 8 -4
12 -10 9 -5 -3 -10 1 -10 10 0 9 -4 13 -10 10 -6 -3 -10 -1 -10 5 0 6 -5 8
-12 4 -8 -5 -7 0 2 11 8 10 10 16 3 12 -17 -10 -88 57 -78 74 5 7 4 10 -3 5
-6 -3 -13 -2 -17 4 -4 6 -11 7 -17 4 -8 -5 -9 -1 -5 10 6 14 3 17 -8 12 -9 -3
-14 -2 -12 2 3 4 1 16 -4 27 -6 17 -8 17 -8 3 -1 -10 -6 -18 -12 -18 -5 0 -8
4 -4 10 7 11 -58 80 -75 80 -6 0 -8 5 -5 10 3 6 2 10 -3 10 -5 0 -12 9 -15 20
-3 13 -14 20 -29 20 -18 0 -20 2 -8 10 12 8 10 10 -10 10 -20 0 -22 2 -10 10
13 8 13 10 -1 10 -9 0 -24 11 -33 25 -9 14 -21 23 -26 20 -6 -4 -10 3 -10 15
0 12 -4 18 -10 15 -5 -3 -10 -1 -10 5 0 6 -4 8 -10 5 -5 -3 -10 1 -10 9 0 9
-6 16 -14 16 -7 0 -20 8 -27 18 -11 14 -11 15 1 5 8 -7 21 -13 30 -13 19 0
-37 30 -59 31 -12 0 -12 2 4 9 19 8 18 11 -6 14 -6 0 -16 9 -23 19 -7 9 -19
17 -26 17 -7 0 -11 2 -8 5 7 7 -63 81 -74 77 -4 -1 -8 2 -8 8 0 14 -37 50 -44
42 -3 -3 -6 2 -6 11 0 16 -12 22 -33 18 -5 -1 -6 3 -2 9 8 13 -20 42 -30 32
-5 -4 -5 1 -2 10 4 12 -2 20 -23 30 -16 7 -26 16 -24 20 3 4 -2 8 -10 8 -9 0
-16 5 -16 11 0 15 -47 59 -54 51 -3 -3 -6 6 -6 19 0 19 -2 21 -10 9 -8 -13
-10 -12 -10 3 0 10 -4 15 -10 12 -5 -3 -10 1 -10 10 0 9 -5 13 -10 10 -6 -3
-10 4 -10 17 0 18 -2 20 -10 8 -8 -13 -10 -12 -10 3 0 10 -4 15 -10 12 -5 -3
-10 1 -10 10 0 9 -4 13 -10 10 -5 -3 -10 2 -10 11 0 10 -3 14 -7 11 -7 -8 -39
34 -35 47 2 5 -4 6 -13 3 -8 -4 -15 -1 -15 5 0 6 -14 24 -31 39 -19 17 -28 33
-24 41 3 7 -1 4 -9 -6 -16 -19 -16 -19 -16 2 0 12 -3 21 -7 21 -20 -3 -26 2
-13 11 12 8 11 10 -6 10 -23 0 -48 23 -37 33 3 4 0 7 -9 7 -17 0 -59 45 -51
54 4 3 -1 6 -10 6 -11 0 -17 8 -17 23 0 18 -2 19 -10 7 -8 -13 -10 -12 -10 3
0 10 -4 15 -10 12 -5 -3 -10 1 -10 10 0 9 -4 13 -10 10 -5 -3 -10 1 -10 9 0 8
-9 18 -20 21 -11 3 -20 13 -20 21 0 8 -4 13 -9 12 -5 -2 -10 2 -12 7 -5 16
-23 33 -31 28 -5 -2 -8 0 -8 4 0 5 -7 18 -16 29 -8 10 -13 12 -9 4 4 -8 -3 -4
-14 10 -11 14 -21 29 -21 34 0 4 -7 5 -16 2 -8 -3 -13 -2 -9 3 3 5 -1 16 -9
24 -8 8 -13 17 -11 19 3 2 -11 21 -30 42 -19 21 -33 42 -30 46 2 4 -4 15 -14
24 -11 10 -25 31 -31 47 -7 16 -18 29 -24 29 -6 0 -4 5 4 10 8 5 10 10 4 10
-6 0 -11 7 -12 15 -1 8 -3 22 -4 30 -1 8 -5 15 -9 15 -5 0 -5 7 -2 17 4 10 2
14 -4 10 -7 -5 -9 0 -6 13 3 13 0 20 -8 20 -10 0 -10 3 -1 12 9 9 7 15 -6 25
-9 8 -12 12 -6 9 7 -3 11 6 10 24 -1 17 -4 30 -8 30 -5 0 -8 5 -8 11 0 5 4 7
10 4 6 -3 7 1 4 9 -3 9 -10 13 -15 10 -5 -3 -6 2 -3 10 3 9 9 14 13 12 4 -3 7
4 7 14 0 10 -3 17 -7 14 -12 -7 -20 29 -9 40 8 8 9 6 5 -6 -4 -10 -3 -18 3
-18 11 0 9 31 -2 49 -3 5 1 12 10 15 13 5 14 9 5 20 -8 10 -9 16 -1 21 7 4 7
12 0 26 -9 15 -7 21 5 25 8 3 15 10 15 16 0 5 -6 6 -12 2 -9 -5 -9 -2 1 9 7 9
10 17 6 17 -5 0 0 10 11 22 10 12 13 18 7 14 -8 -4 -13 -1 -13 9 0 9 5 13 10
10 9 -5 14 16 13 52 -1 7 4 10 10 6 6 -4 8 0 4 11 -4 10 -1 19 8 22 8 4 15 17
15 30 0 14 6 24 15 24 9 0 12 6 8 15 -3 9 2 24 12 35 9 10 14 24 9 31 -4 7 -3
10 2 6 6 -3 16 3 23 15 10 16 10 19 -1 13 -7 -3 -5 0 6 9 11 9 15 20 10 28 -4
7 -4 10 0 6 14 -12 35 15 24 30 -8 9 -7 11 5 6 12 -4 15 -1 12 16 -4 19 -2 20
12 8 10 -8 14 -8 10 -1 -4 6 -3 14 3 18 6 4 8 11 5 16 -4 5 2 9 11 9 10 0 15
3 11 6 -3 4 1 13 9 21 8 8 12 19 8 24 -3 5 0 8 8 7 7 -2 12 2 11 9 -2 6 6 15
17 18 11 4 20 13 20 21 0 8 4 14 8 14 5 0 15 11 22 25 7 13 17 22 22 19 4 -3
8 2 8 11 0 9 5 13 10 10 6 -3 10 1 10 9 0 9 7 16 16 16 8 0 12 4 9 10 -3 6 1
10 9 10 10 0 13 6 9 18 -3 9 -3 14 1 10 10 -9 85 64 78 76 -3 5 2 6 12 3 10
-4 15 -3 11 3 -3 6 1 10 9 10 9 0 16 5 16 11 0 5 -5 7 -12 3 -7 -5 -8 -3 -3 5
4 7 16 11 26 8 11 -3 17 -1 14 3 -6 10 38 60 53 60 7 0 9 7 5 17 -4 11 -3 14
5 9 7 -4 12 -2 12 4 0 7 7 9 16 6 8 -3 12 -2 9 4 -3 6 1 13 9 16 9 3 14 10 11
14 -3 4 2 10 10 14 8 3 15 12 15 21 0 9 9 15 21 15 15 0 19 4 15 16 -4 12 -2
15 9 10 8 -3 14 0 12 7 -1 7 4 11 11 9 7 -1 12 8 12 20 0 19 2 20 10 8 8 -12
10 -12 10 -1 0 15 46 61 61 61 5 0 8 5 7 11 -2 6 3 14 11 17 9 3 11 0 6 -8 -5
-9 -4 -11 4 -6 9 6 9 11 1 21 -9 11 -6 16 14 21 14 3 23 10 20 15 -3 5 0 9 6
9 6 0 8 4 5 10 -4 6 1 7 11 3 14 -5 16 -2 12 15 -5 19 -3 20 13 12 15 -8 17
-7 13 5 -4 10 0 15 10 15 14 0 20 11 17 32 0 4 6 5 15 1 10 -4 17 2 21 16 3
11 9 18 14 15 5 -3 9 2 9 10 0 9 5 16 11 16 5 0 7 6 3 13 -5 7 -2 7 10 -2 9
-8 16 -10 14 -5 -4 13 21 54 33 54 15 0 39 26 32 34 -4 3 1 6 10 6 16 0 22 12
18 33 -1 5 3 5 10 2 6 -4 19 2 30 14 11 12 24 19 30 16 5 -4 9 4 10 17 0 13 3
17 6 10 4 -11 8 -10 22 2 9 8 21 16 26 18 6 2 9 7 7 11 -1 5 2 6 7 3 5 -4 12
0 14 6 4 9 6 9 6 -1 1 -11 5 -10 17 5 8 10 13 12 9 4 -4 -8 1 -6 9 4 10 13 16
15 16 6 0 -8 7 -5 19 9 14 16 21 18 24 9 3 -8 6 -5 7 7 l1 20 9 -20 c5 -11 9
-14 9 -7 1 7 6 10 11 7 6 -3 10 2 10 12 0 15 2 16 10 3 7 -11 12 -12 21 -3 6
6 18 9 27 6 11 -5 13 -2 7 6 -6 10 -3 11 12 3 12 -7 25 -7 36 -1 9 6 17 7 17
4 0 -3 9 -1 20 5 13 7 20 7 20 1 0 -6 7 -8 15 -5 8 4 12 10 10 15 -3 4 10 2
29 -6 29 -12 34 -12 30 -2 -5 15 22 17 44 3 7 -4 12 -2 12 5 0 8 5 7 17 -2 11
-10 14 -10 9 -1 -4 6 -2 12 3 12 6 0 11 -5 11 -12 0 -9 3 -9 12 0 15 15 31 16
22 0 -5 -7 -3 -8 6 -3 22 13 91 13 96 0 3 -7 16 -10 31 -7 17 3 29 -1 35 -12
7 -12 13 -14 29 -6 12 7 19 7 19 1 0 -6 7 -8 15 -5 8 4 15 1 15 -5 0 -6 5 -11
11 -11 5 0 7 6 3 13 -4 6 2 3 14 -7 12 -11 22 -16 22 -11 0 4 12 0 26 -10 15
-9 23 -12 20 -6 -5 7 -1 9 8 5 9 -3 16 -10 16 -15 0 -4 7 -5 17 -2 12 5 14 3
8 -7 -6 -10 -4 -12 9 -7 10 4 19 1 23 -9 5 -13 7 -13 14 -2 7 10 9 11 9 0 0
-7 5 -10 10 -7 6 3 10 -1 10 -9 0 -9 5 -16 11 -16 5 0 8 4 5 9 -4 5 5 4 18 -2
14 -7 20 -15 14 -18 -5 -3 0 -9 11 -12 12 -3 21 -1 21 5 0 5 5 6 10 3 6 -4 8
-11 5 -16 -4 -5 3 -9 13 -9 22 0 46 -23 35 -33 -3 -4 -1 -7 5 -7 7 0 12 5 12
11 0 6 7 3 16 -5 8 -9 20 -13 26 -10 6 4 9 3 6 -2 -3 -5 0 -15 8 -22 9 -8 14
-9 14 -2 0 7 5 6 14 -2 8 -7 12 -16 9 -20 -2 -5 6 -8 18 -8 21 0 59 -34 59
-53 0 -5 8 -3 17 4 11 10 14 10 9 2 -4 -8 -1 -13 8 -13 9 0 16 -8 16 -17 0
-15 2 -16 10 -3 9 13 10 13 11 0 1 -8 1 -18 0 -22 0 -4 8 -5 19 -3 12 2 19 1
17 -3 -3 -4 5 -16 16 -27 11 -11 16 -14 12 -6 -5 9 -4 12 3 7 7 -4 12 -14 12
-22 0 -13 12 -19 33 -15 5 1 6 -3 3 -8 -3 -5 5 -16 18 -25 14 -8 27 -24 31
-35 3 -11 15 -23 25 -26 12 -4 17 -12 13 -22 -4 -11 -2 -14 5 -9 7 4 12 2 12
-4 0 -7 7 -9 16 -6 15 6 15 4 3 -11 -7 -10 -10 -15 -5 -11 9 8 56 -35 56 -52
0 -6 5 -8 10 -5 9 6 14 -8 11 -27 0 -5 6 -8 14 -8 8 0 15 -4 15 -10 0 -5 8
-10 18 -10 14 0 15 -2 2 -10 -13 -8 -13 -10 1 -10 9 0 20 -7 23 -16 3 -8 11
-12 17 -8 8 4 9 3 5 -5 -4 -6 0 -18 8 -27 9 -9 14 -19 11 -24 -3 -4 4 -6 15
-3 14 4 20 1 18 -8 -2 -8 3 -13 10 -11 6 1 11 -1 11 -5 -1 -5 -1 -15 0 -23 1
-13 2 -13 11 0 8 12 10 11 10 -7 0 -13 11 -30 25 -39 14 -9 22 -21 18 -28 -3
-6 -3 -8 1 -5 11 10 56 -36 56 -57 0 -16 2 -17 10 -4 9 14 14 7 11 -13 -1 -5
3 -6 8 -3 5 3 14 -1 21 -9 11 -13 10 -15 -6 -9 -17 5 -17 4 1 -7 11 -7 27 -21
36 -31 9 -9 19 -15 22 -11 4 3 5 -4 2 -15 -2 -15 0 -19 11 -15 13 5 19 -8 15
-30 -1 -5 3 -6 8 -3 5 4 15 0 23 -9 31 -34 36 -43 31 -49 -6 -6 13 -10 30 -7
5 1 6 -3 2 -9 -3 -5 -1 -10 5 -10 6 0 8 -4 5 -10 -3 -5 1 -10 10 -10 9 0 14
-4 10 -10 -3 -5 6 -17 20 -26 14 -9 25 -23 25 -30 0 -8 10 -14 23 -14 18 0 19
-2 7 -10 -13 -9 -13 -10 0 -11 8 -1 18 -1 23 0 4 0 7 -8 7 -20 0 -11 5 -17 10
-14 6 3 10 1 10 -5 0 -16 26 -40 35 -32 4 4 6 2 5 -3 -5 -23 1 -35 16 -35 9 0
18 -9 21 -19 3 -11 12 -22 20 -25 8 -3 11 -10 8 -16 -5 -9 7 -14 27 -12 3 1
13 -14 22 -33 9 -19 22 -37 29 -41 6 -5 5 1 -3 11 -10 13 -11 16 -2 11 7 -4
18 -19 23 -33 5 -14 19 -27 30 -30 14 -4 19 -12 16 -24 -3 -11 -1 -17 3 -14 5
3 22 -7 40 -21 l31 -27 28 32 c15 17 34 31 41 31 10 0 10 3 0 15 -11 13 -10
14 5 9 10 -4 16 -3 13 2 -7 11 17 35 26 27 6 -6 10 13 7 30 -1 5 4 5 10 1 9
-5 10 -2 5 11 -5 15 -4 16 9 5 15 -12 20 -4 16 23 0 4 5 6 11 5 7 -2 12 3 10
9 -1 8 8 13 20 13 17 0 19 3 9 9 -11 7 -9 10 8 16 11 3 21 13 21 21 0 8 5 12
10 9 6 -3 10 1 10 9 0 9 7 16 15 16 9 0 12 6 9 15 -4 10 0 15 11 15 10 0 13 5
9 12 -5 8 -2 9 10 5 10 -4 15 -3 11 3 -3 6 1 13 9 16 9 3 14 10 11 14 -3 5 4
11 15 15 11 3 19 12 17 18 -1 7 6 11 16 11 15 -2 16 1 5 14 -10 12 -10 14 0 8
8 -5 12 -1 12 11 0 15 2 16 10 3 8 -13 10 -12 10 3 0 9 5 17 11 17 6 0 9 7 5
15 -5 13 10 20 37 16 4 0 6 2 6 6 -1 5 -1 16 0 27 1 16 3 17 18 5 11 -10 14
-10 9 -1 -4 6 -2 12 3 12 6 0 11 9 11 20 0 14 5 18 17 13 10 -4 14 -2 10 4 -4
6 0 14 9 17 8 3 12 10 9 16 -3 5 1 10 9 10 9 0 16 5 16 11 0 5 4 7 10 4 6 -4
7 1 3 12 -3 10 -2 15 2 11 5 -5 17 6 27 23 10 16 22 28 27 25 4 -3 14 7 22 22
17 34 34 52 48 52 6 0 8 7 5 15 -5 11 -2 13 12 8 12 -4 15 -3 10 5 -4 7 -1 12
9 12 9 0 13 4 10 10 -3 6 -1 10 5 10 6 0 8 4 5 10 -3 5 0 10 8 10 8 0 18 7 21
16 3 8 10 12 16 9 6 -3 7 1 4 9 -4 11 0 16 11 16 9 0 14 4 10 9 -3 5 4 12 15
16 11 4 18 11 15 16 -4 5 -1 9 4 9 6 0 11 7 11 15 0 8 5 15 11 15 15 0 39 26
32 34 -4 3 1 6 11 6 9 0 14 4 11 10 -6 9 8 14 28 11 5 -1 5 3 2 9 -7 12 40 62
49 52 3 -3 6 2 6 11 0 9 9 21 20 27 11 6 18 15 15 21 -4 5 1 9 9 9 15 0 21 12
17 34 -1 5 5 4 13 -3 13 -11 15 -10 11 8 -2 12 -1 19 4 17 4 -3 13 -1 21 5 13
7 13 9 0 9 -8 1 -4 5 9 11 14 6 21 15 18 24 -4 9 -1 12 9 8 8 -3 14 1 14 11 0
9 7 16 16 16 8 0 13 4 9 9 -3 5 4 12 15 16 11 3 20 13 20 22 0 9 6 13 14 10
10 -4 13 -1 9 9 -3 7 0 14 6 14 6 0 11 7 11 16 0 8 5 12 10 9 6 -3 10 0 10 8
0 8 10 17 21 20 14 4 20 11 16 21 -4 11 -1 13 10 9 11 -4 14 -3 9 6 -5 8 -1
14 13 18 11 3 26 18 33 33 7 16 16 26 20 24 4 -3 8 3 8 13 0 15 2 16 10 3 8
-13 10 -12 10 3 0 9 5 17 11 17 5 0 7 4 4 10 -3 6 -1 10 5 10 6 0 9 4 6 9 -3
5 2 8 12 7 11 -1 16 5 14 18 -2 10 1 16 6 13 4 -3 14 3 22 13 8 10 18 16 24
13 5 -4 7 1 3 10 -4 11 -1 17 9 17 9 0 12 5 8 12 -5 8 -2 9 10 5 14 -5 17 -3
12 8 -3 10 1 15 12 15 15 0 15 2 2 10 -13 9 -13 10 0 10 17 0 50 34 50 50 0 6
6 10 14 10 8 0 18 5 22 12 5 7 3 8 -6 3 -9 -6 -11 -4 -6 4 5 7 15 10 23 7 8
-3 11 -2 8 3 -3 5 -1 12 5 16 6 4 8 11 4 16 -3 5 -2 9 3 8 17 -3 36 1 31 7 -9
8 31 46 41 39 5 -3 7 5 3 17 -3 14 -2 19 6 14 7 -4 12 -1 12 8 0 9 8 16 17 16
9 0 14 3 10 6 -3 4 1 13 9 22 14 13 17 13 25 1 5 -8 9 -9 9 -3 0 5 -5 15 -10
22 -6 6 -7 10 -4 7 7 -5 54 45 54 58 0 4 5 7 11 7 5 0 7 -5 3 -12 -4 -7 -3 -8
4 -4 6 4 8 14 5 24 -3 9 -3 14 2 10 11 -10 46 32 38 45 -3 6 -1 7 5 3 7 -4 12
-2 12 4 0 7 7 10 14 7 10 -4 13 -1 9 9 -5 14 30 54 48 54 4 0 11 9 14 20 4 11
11 18 16 15 5 -4 9 1 9 10 0 9 4 14 8 11 4 -2 13 7 20 22 6 15 26 33 43 41 17
7 27 16 21 20 -6 4 -4 11 4 19 8 7 14 10 14 7 0 -3 6 0 14 7 10 9 11 15 2 20
-6 5 -1 8 12 8 13 0 20 4 17 10 -3 6 2 10 12 10 15 0 16 2 3 10 -13 8 -12 10
3 10 10 0 15 5 12 10 -3 6 4 10 17 10 18 0 20 2 8 10 -14 9 -7 15 14 11 5 -1
6 6 2 15 -6 15 -4 15 11 3 9 -8 14 -9 10 -3 -9 15 22 56 35 48 7 -5 9 -1 5 9
-3 9 -2 19 3 22 4 3 11 -1 13 -7 3 -8 6 -6 6 5 1 10 6 15 11 12 6 -4 10 -3 9
2 -3 20 2 33 14 31 6 -2 11 5 11 15 -2 14 1 15 12 6 12 -9 13 -9 8 4 -3 10 4
22 20 32 14 10 23 21 20 26 -3 5 -2 8 3 7 12 -4 63 44 63 59 0 8 5 11 10 8 6
-3 10 1 10 10 0 9 5 13 10 10 6 -3 10 4 10 16 0 18 2 19 15 9 13 -11 14 -10 9
4 -3 9 -1 16 5 16 6 0 11 8 11 18 0 13 2 14 9 4 6 -10 10 -8 14 8 3 12 10 19
16 16 6 -4 8 2 6 14 -2 11 -1 19 3 19 20 -3 32 2 27 11 -3 6 0 10 8 10 8 0 17
9 20 21 4 14 10 18 18 13 9 -5 10 -2 6 9 -4 11 -1 17 9 17 8 0 13 4 10 9 -3 5
4 11 15 14 12 3 18 10 14 16 -3 6 -1 11 5 11 6 0 8 4 5 10 -4 6 1 7 11 3 13
-5 16 -3 11 9 -6 16 17 33 32 24 6 -4 15 51 12 82 -1 6 -1 18 -2 25 0 21 0
201 1 222 1 11 1 26 1 33 -1 18 -1 29 -1 122 0 47 0 94 0 105 -4 159 1 246 12
239 10 -6 10 -4 0 8 -10 12 -13 55 -12 160 1 79 0 172 0 208 -1 36 -1 74 0 85
1 11 1 26 1 33 -1 18 -1 29 -1 122 0 47 0 94 0 105 -4 159 1 246 12 239 10 -6
10 -4 0 8 -10 12 -13 55 -12 160 1 79 1 175 0 213 -1 39 -1 76 -1 83 1 15 1
10 0 187 0 61 0 119 1 130 1 11 1 26 1 33 -1 18 -1 29 -1 122 0 47 0 94 0 105
-4 159 1 246 12 239 10 -6 10 -4 0 8 -10 12 -13 55 -12 160 1 79 0 172 0 208
-1 36 -1 74 0 85 1 11 1 26 1 33 -1 18 -1 29 -1 122 0 47 0 94 0 105 -4 159 1
246 12 239 10 -6 10 -4 0 8 -10 12 -13 55 -12 160 1 79 1 160 0 181 0 22 5 46
12 55 8 10 9 13 1 9 -9 -5 -12 26 -13 120 -1 71 -1 140 -1 156 1 15 -3 27 -9
27 -5 0 -10 5 -10 11 0 5 4 8 8 5 5 -3 9 1 9 9 0 8 -4 12 -8 10 -4 -3 -7 11
-7 30 0 20 -6 43 -13 52 -12 14 -12 16 1 8 11 -7 10 -2 -3 19 -10 15 -16 30
-13 33 3 4 0 13 -7 21 -10 13 -9 14 3 7 11 -6 10 -3 -3 12 -9 11 -14 23 -10
27 5 4 -1 14 -11 22 -13 9 -15 14 -6 14 9 0 7 5 -6 14 -10 8 -16 18 -12 21 11
11 -11 47 -24 39 -6 -4 -8 -3 -5 4 9 13 -2 44 -13 37 -4 -3 -7 3 -6 13 0 9 -4
16 -9 15 -6 -1 -12 7 -12 18 -2 22 -27 51 -37 42 -3 -4 -6 3 -6 14 0 12 -8 23
-20 26 -11 3 -20 12 -20 21 0 10 -9 16 -22 16 -19 0 -20 2 -8 10 12 8 11 10
-7 10 -16 0 -23 6 -23 20 0 13 -7 20 -20 20 -12 0 -20 7 -20 18 0 14 -2 15
-10 2 -8 -13 -10 -12 -10 3 0 10 -8 17 -21 17 -11 0 -17 5 -14 10 3 6 -3 10
-14 10 -12 0 -21 7 -21 15 0 9 -6 12 -15 9 -8 -4 -15 -1 -15 5 0 6 -7 11 -15
11 -8 0 -15 6 -15 13 0 8 -4 7 -10 -3 -9 -13 -14 -8 -11 12 0 3 -11 5 -24 3
-13 -1 -22 2 -19 6 5 8 -17 14 -38 10 -5 0 -8 4 -8 10 0 5 -4 7 -10 4 -5 -3
-10 -1 -10 5 0 7 -7 10 -15 6 -8 -3 -15 0 -15 6 0 6 -3 8 -7 5 -3 -4 -13 -1
-21 6 -13 9 -14 9 -8 0 4 -7 2 -13 -3 -13 -6 0 -11 5 -11 11 0 5 -4 7 -10 4
-5 -3 -10 -1 -10 5 0 7 -6 10 -14 7 -7 -3 -19 0 -26 6 -10 9 -11 9 -5 -2 6
-10 4 -12 -6 -5 -8 5 -22 9 -31 10 -10 1 -21 3 -25 4 -5 1 -18 1 -30 0 -13 -1
-23 3 -23 9 0 6 -7 11 -16 11 -9 0 -12 -5 -8 -12 6 -10 5 -10 -7 -2 -8 7 -25
11 -39 10 -14 -1 -28 3 -32 9 -5 6 -8 5 -8 -3 0 -7 -5 -10 -11 -6 -14 8 -556
7 -569 -1 -6 -3 -10 -3 -10 2 0 9 -123 8 -146 -1 -8 -3 -14 -2 -14 2 0 8 -124
6 -146 -2 -8 -3 -14 -2 -14 2 0 8 -124 6 -146 -2 -8 -3 -14 -2 -14 3 0 4 -12
6 -26 3 -21 -4 -25 -2 -19 9 7 11 6 12 -6 2 -9 -8 -60 -12 -148 -12 -73 0
-136 -2 -139 -5 -3 -3 -11 -1 -19 5 -10 9 -13 8 -13 0 0 -7 -5 -9 -11 -6 -10
7 -95 8 -289 6 -41 -1 -86 0 -100 2 -14 2 -33 0 -42 -5 -9 -4 -19 -5 -22 0 -2
4 -25 7 -50 5 -46 -3 -46 -3 -46 30 0 18 -6 39 -12 46 -7 8 -8 11 -2 8 6 -3
11 0 11 8 0 8 -4 12 -9 9 -7 -5 -13 47 -9 88 1 9 -3 19 -8 22 -6 4 -8 13 -4
21 3 8 1 15 -5 15 -5 0 -9 16 -7 36 1 20 -3 38 -9 40 -6 2 -12 16 -13 31 0 15
-6 29 -12 31 -6 2 -11 8 -11 13 0 6 5 7 11 3 6 -3 4 5 -5 18 -9 14 -13 28 -9
31 3 4 2 7 -4 7 -6 0 -10 13 -9 30 2 21 -1 26 -9 20 -8 -7 -11 0 -10 25 0 25
-2 31 -11 24 -9 -7 -12 0 -10 29 1 28 -3 38 -11 35 -8 -3 -13 3 -13 15 0 12
-10 28 -22 36 -12 9 -17 16 -10 16 6 0 12 5 12 11 0 5 -4 7 -10 4 -6 -4 -10 5
-10 19 0 14 -4 26 -10 26 -5 0 -10 7 -10 16 0 8 -4 12 -10 9 -6 -4 -10 5 -10
20 0 15 -4 24 -10 20 -5 -3 -10 3 -10 14 0 12 -6 21 -14 21 -10 0 -12 7 -8 22
3 13 1 19 -5 15 -6 -4 -13 3 -16 14 -3 12 -10 18 -15 15 -6 -4 -8 3 -4 16 3
14 2 19 -6 14 -7 -4 -12 -1 -12 9 0 10 -5 13 -12 9 -7 -4 -10 -4 -6 1 4 4 -1
20 -12 35 -11 15 -16 31 -12 35 4 5 -1 5 -11 2 -11 -4 -16 -3 -12 3 3 6 0 13
-9 16 -9 3 -12 12 -9 22 5 12 2 14 -11 9 -10 -4 -15 -3 -11 3 8 13 -20 42 -30
32 -5 -4 -5 -2 -1 5 3 6 -2 16 -11 22 -10 6 -14 11 -10 11 13 0 -20 30 -33 30
-6 0 -8 5 -5 10 3 6 -2 10 -12 10 -15 0 -16 2 -3 10 13 8 13 10 -1 10 -9 0
-20 7 -23 16 -3 8 -11 12 -17 8 -8 -4 -9 -3 -5 4 4 7 2 12 -4 12 -6 0 -8 5 -5
10 3 6 -1 10 -10 10 -9 0 -13 5 -10 10 3 6 -3 10 -14 10 -12 0 -21 5 -21 11 0
13 -30 44 -31 32 0 -4 -4 2 -9 15 -5 12 -16 22 -25 22 -8 0 -15 4 -15 9 0 5
-9 13 -20 16 -11 3 -20 14 -20 23 0 15 -2 15 -10 2 -8 -13 -10 -12 -10 3 0 11
-8 17 -22 17 -16 0 -19 3 -10 8 9 6 -1 16 -33 32 -25 13 -43 25 -40 28 6 7
-43 32 -64 32 -12 0 -13 2 -4 8 9 6 0 14 -27 26 -23 10 -37 22 -34 28 4 6 2 8
-4 5 -13 -9 -44 2 -37 14 3 4 -3 6 -15 4 -11 -2 -23 1 -26 7 -4 7 -2 8 4 4 7
-4 12 -2 12 5 0 7 -8 9 -21 6 -15 -4 -19 -2 -15 9 3 7 2 13 -2 13 -4 -1 -20
-1 -37 0 -23 1 -27 3 -15 11 12 8 11 10 -7 10 -13 0 -23 5 -23 11 0 6 -9 9
-19 6 -12 -3 -22 1 -25 9 -3 8 -15 14 -26 14 -14 0 -19 4 -14 13 5 7 1 7 -12
-3 -10 -8 -16 -10 -12 -6 4 5 3 15 -3 23 -10 11 -15 11 -27 1 -13 -10 -14 -10
-8 0 4 7 1 12 -8 12 -9 0 -16 6 -16 13 0 8 -4 7 -10 -3 -8 -12 -10 -12 -10 5
0 15 -3 16 -9 7 -7 -11 -11 -11 -24 2 -19 19 -31 21 -21 4 5 -8 0 -7 -10 2
-10 8 -26 15 -35 15 -9 0 -15 5 -14 11 1 7 -5 10 -16 7 -9 -2 -23 2 -30 10 -6
8 -21 13 -31 10 -11 -3 -20 0 -20 6 0 6 -5 11 -11 11 -5 0 -8 -4 -5 -8 3 -5
-1 -9 -9 -9 -8 0 -12 3 -10 7 2 3 -9 11 -26 17 -16 6 -27 7 -23 2 3 -5 0 -9
-5 -9 -6 0 -11 4 -11 9 0 5 -7 12 -16 15 -9 4 -13 2 -8 -5 3 -6 -5 -3 -20 6
-17 11 -26 13 -26 5 0 -7 -6 -6 -16 4 -8 9 -21 16 -27 16 -7 0 -6 -4 3 -10 9
-6 10 -10 3 -10 -6 0 -15 5 -18 10 -3 6 -17 8 -30 6 -13 -3 -25 0 -27 6 -2 6
-16 12 -31 14 -19 2 -25 -1 -20 -9 4 -7 -1 -6 -11 2 -21 18 -56 22 -56 7 0 -5
-6 -2 -13 8 -10 14 -17 15 -40 7 -16 -6 -26 -7 -22 -2 3 5 1 12 -5 16 -5 3
-10 2 -10 -4 0 -5 -10 -8 -22 -5 -13 3 -38 5 -57 5 -19 1 -29 4 -22 8 6 4 -4
8 -23 8 -31 0 -34 -2 -24 -16 10 -12 8 -12 -8 1 -18 16 -43 17 -234 15 -118
-2 -226 -6 -240 -10 -21 -6 -22 -6 -5 2 18 9 18 10 -5 8 -14 -2 -35 -8 -47
-15 -17 -10 -22 -9 -25 2 -2 11 -5 12 -15 1z m321 -1046 c11 9 16 10 16 2 0
-11 39 -9 59 3 5 4 13 1 17 -5 5 -8 3 -9 -6 -4 -9 5 -11 4 -6 -4 4 -6 13 -8
19 -4 17 11 117 12 117 1 0 -5 5 -6 10 -3 6 3 10 0 10 -7 0 -9 3 -9 10 2 5 8
10 10 10 4 0 -7 13 -10 30 -9 17 1 30 -2 30 -9 0 -6 5 -4 10 4 8 12 10 12 10
1 0 -11 3 -11 15 -1 13 11 14 10 8 -5 -5 -15 -3 -17 12 -12 9 4 25 2 33 -5 12
-10 14 -10 8 -1 -5 9 -2 11 8 7 9 -3 13 -11 9 -18 -4 -6 2 -4 12 4 15 12 17
12 10 1 -6 -11 -4 -13 8 -8 10 4 17 1 17 -6 0 -8 4 -6 10 3 8 12 10 12 10 -5
0 -17 2 -17 10 -5 6 10 10 11 10 3 0 -7 9 -13 20 -13 11 0 20 -5 20 -11 0 -7
10 -9 24 -7 19 4 23 1 18 -10 -4 -11 -1 -14 12 -9 11 4 19 1 23 -10 6 -15 7
-14 14 3 7 18 8 17 8 -3 1 -16 6 -21 21 -18 11 2 18 0 15 -6 -4 -5 6 -9 22 -9
22 0 25 -2 13 -10 -12 -8 -10 -10 8 -10 13 0 20 -4 17 -10 -3 -5 3 -10 15 -10
11 0 23 -6 26 -14 3 -9 12 -12 21 -9 9 4 14 2 11 -3 -3 -5 0 -15 8 -22 8 -7
14 -10 14 -6 0 4 9 -5 21 -20 11 -14 27 -26 35 -26 8 0 14 -4 14 -10 0 -5 7
-10 15 -10 9 0 12 -6 8 -17 -4 -11 -3 -14 6 -9 8 5 14 0 18 -14 4 -14 8 -17
13 -10 4 7 12 0 20 -19 7 -17 16 -28 21 -25 5 3 9 -2 9 -10 0 -9 5 -15 12 -13
6 1 17 -8 23 -20 7 -13 15 -20 19 -16 4 4 4 0 1 -9 -4 -9 -1 -19 6 -24 8 -5
10 -3 4 6 -5 9 -4 11 3 6 7 -4 12 -14 12 -22 0 -8 4 -12 10 -9 6 4 7 -1 3 -11
-4 -12 -3 -15 5 -10 11 6 14 1 11 -20 0 -3 9 -14 20 -23 12 -10 21 -26 21 -35
0 -10 5 -14 10 -11 6 4 10 -5 10 -19 0 -17 6 -26 16 -26 8 0 12 -4 9 -10 -3
-5 -1 -10 4 -10 6 0 11 -9 11 -20 0 -11 5 -20 10 -20 6 0 10 -12 11 -27 0 -25
1 -26 9 -8 7 17 9 15 9 -12 1 -18 6 -33 11 -33 6 0 10 -9 10 -20 0 -11 5 -20
10 -20 6 0 10 -11 10 -25 0 -14 6 -28 14 -31 8 -3 12 -12 9 -20 -3 -8 0 -14 6
-14 6 0 11 -5 11 -11 0 -5 -5 -7 -11 -4 -6 4 -5 -2 3 -14 7 -12 16 -21 20 -21
5 0 8 -5 8 -11 0 -5 -6 -7 -12 -4 -7 4 -2 -3 12 -15 14 -12 19 -19 13 -15 -9
4 -13 -1 -13 -16 0 -18 2 -19 15 -9 14 11 14 10 6 -13 -7 -18 -7 -28 1 -33 7
-5 8 -3 3 6 -5 9 -4 11 4 6 9 -6 9 -11 -1 -24 -10 -12 -10 -14 0 -8 11 7 16
-10 15 -51 -1 -7 3 -13 8 -13 5 0 6 -7 3 -15 -4 -8 1 -17 10 -21 13 -5 14 -9
5 -20 -9 -11 -8 -14 2 -14 12 0 12 -2 1 -9 -11 -7 -11 -9 2 -14 11 -5 15 -15
12 -32 -3 -14 0 -25 6 -25 6 0 8 -3 5 -7 -4 -3 -1 -13 6 -21 10 -13 9 -14 -2
-7 -11 6 -13 4 -6 -11 4 -10 8 -31 9 -46 0 -16 5 -28 9 -28 5 0 5 -10 2 -21
-5 -16 -4 -19 5 -14 9 5 10 1 5 -15 -5 -16 -4 -20 5 -15 9 6 9 3 2 -12 -11
-21 -5 -66 7 -58 4 2 8 -2 8 -10 0 -8 -4 -12 -9 -9 -4 3 -8 -2 -8 -11 0 -10 5
-14 13 -9 10 6 10 4 0 -7 -7 -7 -13 -18 -13 -23 0 -6 5 -4 10 4 8 12 10 8 9
-15 -3 -87 4 -192 15 -204 9 -12 8 -13 -2 -7 -10 6 -13 2 -10 -15 3 -22 4 -22
147 -20 80 1 148 4 152 7 4 2 10 1 13 -4 2 -4 23 -6 45 -4 27 3 39 8 34 16 -5
7 -2 7 8 -1 10 -8 68 -12 179 -13 224 -2 223 -2 214 13 -6 9 -4 9 8 -1 9 -7
41 -12 74 -12 33 0 95 1 138 1 44 0 83 2 87 5 4 2 10 1 13 -4 2 -4 23 -6 45
-4 27 3 39 8 34 16 -4 6 0 6 9 -2 15 -12 62 -14 302 -12 39 1 74 4 79 7 6 3 8
2 5 -3 -4 -5 21 -8 55 -7 34 1 75 2 90 2 20 1 26 5 21 14 -6 9 -5 9 8 -1 9 -7
45 -12 89 -12 254 0 303 -1 289 -10 -8 -5 -10 -10 -5 -10 6 0 17 6 24 13 11
10 13 10 7 0 -7 -13 21 -18 67 -14 9 1 17 -4 17 -11 0 -8 3 -9 8 -3 10 14 32
17 32 4 0 -5 5 -7 10 -4 6 3 10 2 10 -2 0 -5 15 -8 34 -8 27 1 33 -2 28 -14
-3 -9 -2 -13 3 -9 4 4 17 3 28 -3 14 -8 18 -8 13 0 -4 6 -2 11 3 11 6 0 11 -7
11 -16 0 -10 5 -14 16 -10 9 4 13 2 8 -5 -4 -7 -1 -10 7 -7 8 3 24 -4 37 -16
22 -20 23 -20 16 -1 -6 15 -1 13 18 -8 15 -16 30 -29 35 -30 4 -1 7 -5 6 -9
-2 -5 0 -7 5 -7 22 4 42 -2 37 -11 -3 -5 -1 -10 5 -10 6 0 8 -5 4 -12 -5 -8 0
-7 11 2 11 9 16 10 11 3 -4 -8 -1 -13 8 -13 9 0 16 -8 16 -17 0 -9 3 -14 6
-10 8 8 34 -18 34 -33 0 -6 5 -8 10 -5 6 3 10 -4 10 -17 0 -18 2 -20 10 -8 8
12 10 11 10 -7 0 -14 6 -23 16 -23 10 0 14 -6 11 -14 -4 -10 -1 -13 8 -10 10
4 13 0 10 -15 -2 -14 1 -18 10 -15 10 4 13 0 10 -16 -2 -13 -2 -20 1 -17 4 3
12 0 19 -6 10 -9 10 -15 1 -26 -8 -12 -8 -13 2 -7 9 5 15 1 19 -13 3 -11 9
-19 13 -16 4 3 7 -3 6 -13 0 -9 4 -16 11 -15 7 2 10 -4 6 -13 -3 -9 0 -20 8
-25 12 -8 12 -11 -1 -19 -13 -8 -12 -10 3 -10 10 0 15 -4 12 -10 -3 -5 0 -10
7 -10 9 0 9 -3 -2 -10 -13 -8 -13 -10 2 -10 11 0 15 -7 13 -25 -1 -14 3 -25 9
-25 6 0 4 -5 -4 -10 -13 -8 -12 -10 3 -10 13 0 16 -6 13 -25 -3 -14 -1 -25 4
-25 4 0 11 -7 14 -16 4 -10 2 -13 -6 -8 -7 5 -8 3 -3 -7 5 -7 10 -27 11 -44 1
-16 3 -34 3 -38 1 -5 7 -5 14 -1 8 5 7 2 -2 -9 -11 -14 -12 -22 -2 -41 7 -12
11 -40 9 -61 l-3 -39 -70 3 c-136 6 -195 6 -195 1 0 -3 -19 -4 -42 -2 -24 1
-67 2 -97 2 -30 1 -62 6 -70 13 -11 9 -13 9 -8 0 9 -14 -102 -21 -196 -13 -32
3 -60 4 -63 1 -2 -3 -23 -4 -47 -3 -57 2 -283 1 -329 -1 -21 -1 -38 1 -38 4 0
4 -15 3 -34 -1 -19 -4 -39 -4 -46 0 -7 4 -26 4 -44 0 -17 -4 -40 -4 -51 0 -11
4 -24 5 -28 3 -7 -4 -302 -6 -324 -2 -4 1 -12 0 -18 -1 -5 -1 -28 -1 -50 -1
-74 1 -290 0 -327 -2 -21 -1 -38 1 -38 4 0 4 -15 3 -34 -1 -19 -4 -39 -4 -46
0 -7 4 -27 4 -45 0 -18 -4 -39 -4 -46 1 -7 4 -17 5 -21 3 -7 -5 -311 -7 -335
-3 -4 1 -12 0 -18 -1 -8 -2 -50 -1 -120 2 -5 0 -71 0 -145 -1 -74 -1 -154 0
-178 2 -23 1 -42 0 -42 -3 0 -3 -19 -4 -42 -3 -64 4 -162 5 -173 3 -5 -1 -14
-1 -20 0 -22 5 -85 5 -85 0 0 -3 -24 -4 -52 -2 -106 6 -268 7 -268 2 0 -3 -19
-4 -42 -3 -37 2 -133 4 -178 3 -8 -1 -34 1 -58 2 -23 2 -42 1 -42 -2 0 -3 -19
-4 -42 -2 -48 3 -280 2 -318 -1 -14 -2 -44 0 -67 4 -24 3 -45 3 -48 1 -3 -3
-24 -5 -48 -4 -57 2 -283 1 -329 -1 -21 -1 -38 1 -38 5 0 3 -12 3 -27 -1 -16
-5 -37 -5 -48 -1 -11 4 -33 4 -50 0 -17 -4 -39 -4 -50 0 -11 4 -23 5 -28 3 -7
-4 -302 -7 -322 -3 -5 1 -14 1 -20 0 -5 -1 -28 -1 -50 -1 -74 1 -290 0 -327
-2 -21 -1 -38 1 -38 6 0 4 -5 5 -10 2 -9 -5 -53 -6 -180 -4 -8 0 -85 -1 -170
-1 -85 -1 -159 -1 -165 0 -5 1 -14 1 -20 0 -5 -1 -28 -1 -50 -1 -74 1 -290 0
-327 -2 -21 -1 -38 1 -38 4 0 4 -15 3 -34 -1 -19 -4 -39 -4 -46 0 -7 4 -26 4
-44 0 -17 -4 -40 -4 -51 0 -11 4 -23 5 -28 3 -7 -4 -302 -7 -322 -3 -5 1 -14
1 -20 0 -5 -1 -28 -1 -50 -1 -74 1 -290 0 -327 -2 -21 -1 -38 1 -38 4 0 4 -15
3 -34 -1 -19 -4 -39 -4 -46 0 -7 4 -27 4 -45 0 -18 -4 -39 -4 -46 0 -7 5 -18
6 -24 3 -22 -8 -125 -8 -125 0 0 5 -5 5 -10 2 -6 -4 -45 -6 -88 -6 -101 2 -93
2 -269 1 -83 0 -155 0 -160 1 -4 1 -12 0 -18 -1 -5 -1 -28 -1 -50 -1 -22 0
-77 1 -122 2 -46 0 -81 5 -78 9 3 5 1 11 -5 15 -6 4 -7 12 -3 18 4 7 6 25 4
41 -2 20 1 26 9 21 9 -6 9 -2 1 13 -8 15 -7 23 3 31 8 7 11 22 8 38 -4 20 -2
24 9 18 12 -7 12 -6 1 7 -10 13 -10 17 3 22 13 4 14 10 5 26 -6 11 -7 20 -1
20 5 0 12 7 15 16 4 10 2 13 -7 7 -6 -4 -4 6 7 21 11 17 13 25 5 20 -12 -6
-12 -5 0 9 7 9 11 17 7 17 -4 0 1 11 10 25 9 14 14 31 11 39 -4 10 -1 13 9 9
8 -3 14 -2 13 3 -4 22 2 35 12 28 8 -5 10 1 7 20 -4 19 -1 26 11 26 14 0 14 2
1 10 -13 8 -12 10 3 10 10 0 15 5 12 10 -3 6 0 10 7 10 11 0 10 2 0 9 -10 6
-8 10 8 14 17 4 21 11 17 26 -3 12 -2 19 2 17 9 -6 41 30 41 45 0 5 5 7 10 4
6 -3 10 3 10 14 0 12 3 20 8 20 4 -1 14 -1 22 0 12 1 13 3 1 10 -10 6 -5 12
17 22 21 9 27 16 19 21 -8 5 -6 8 6 8 9 0 17 6 17 14 0 10 8 13 21 11 12 -3
19 -2 16 2 -8 7 18 33 33 33 6 0 8 5 5 10 -3 6 1 10 9 10 9 0 16 6 17 13 0 9
2 9 6 0 3 -10 8 -9 20 2 8 8 20 12 26 8 8 -5 8 -2 0 8 -13 16 -9 18 40 20 9 0
16 3 13 7 -2 4 3 14 12 22 14 13 15 12 9 -4 -6 -16 -5 -17 8 -6 8 7 15 9 15 6
0 -4 7 -1 15 8 9 8 23 12 32 9 11 -4 14 -3 9 5 -4 8 -2 10 7 6 8 -3 18 0 22 6
5 8 11 8 21 -1 11 -9 14 -8 14 6 0 14 9 16 51 14 28 -2 53 2 57 7 6 9 99 18
152 15 56 -3 205 1 213 6 6 3 8 2 5 -3 -4 -5 21 -8 55 -7 34 1 75 2 90 2 20 1
26 5 21 14 -6 9 -4 9 8 -1 10 -8 40 -12 81 -10 36 1 68 0 71 -3 3 -2 23 -3 45
-1 27 3 39 8 34 16 -4 6 0 5 9 -2 12 -9 48 -13 123 -11 58 1 108 0 110 -3 2
-2 22 -2 44 0 27 3 39 8 34 16 -4 7 -1 6 9 -2 14 -11 40 -13 297 -11 41 0 78
2 82 5 4 2 10 1 13 -4 2 -4 23 -6 45 -4 27 3 39 8 34 16 -4 6 0 6 9 -2 11 -9
50 -13 120 -13 56 0 110 0 118 0 8 -1 42 -1 75 0 118 2 211 3 250 3 l40 0 -3
70 c-2 38 1 68 5 65 5 -3 10 4 10 16 2 15 0 18 -6 8 -5 -8 -8 0 -7 22 0 19 5
33 10 29 5 -3 7 2 3 11 -3 10 -3 17 1 17 4 0 6 20 5 45 -2 32 1 44 9 39 7 -4
8 -3 4 4 -12 19 -16 53 -5 47 10 -7 12 4 10 53 0 24 3 31 12 26 7 -5 5 1 -3
11 -9 12 -10 16 -2 11 9 -6 11 0 7 23 -4 23 -1 33 11 38 12 5 13 7 2 14 -10 6
-9 12 7 24 11 9 15 14 9 11 -7 -3 -15 1 -18 10 -3 8 -2 12 4 9 9 -5 14 16 13
52 -1 7 3 10 8 7 5 -3 10 7 11 23 2 52 4 58 13 56 6 -1 10 13 10 30 0 18 6 38
15 45 13 12 13 12 0 6 -13 -7 -13 -5 -1 9 7 9 11 26 8 37 -3 11 0 23 5 27 7 4
8 1 3 -7 -5 -9 -4 -11 4 -6 7 5 9 16 5 28 -5 15 -3 20 7 16 10 -4 15 4 16 25
1 17 6 33 11 36 4 3 8 15 7 26 0 11 7 26 15 33 8 8 10 11 3 8 -8 -5 -8 0 0 18
7 13 15 22 19 20 5 -3 8 4 8 15 0 12 6 21 13 21 8 0 7 4 -3 10 -13 8 -13 10 1
10 9 0 20 7 23 16 4 10 2 13 -7 9 -6 -4 -5 -1 4 7 9 7 15 21 13 31 -2 14 1 16
11 7 11 -9 12 -7 8 8 -3 12 1 22 11 25 9 4 13 13 10 22 -4 9 -1 15 9 15 9 0
13 8 12 25 -2 14 1 23 6 19 5 -3 6 -10 3 -16 -4 -7 -2 -8 5 -4 6 4 11 13 10
19 -3 27 1 42 9 30 6 -9 11 -6 21 8 7 12 8 18 2 14 -23 -14 -9 8 25 40 22 21
33 39 28 46 -4 8 -3 9 4 5 7 -4 12 -2 12 4 0 6 5 8 12 4 6 -4 8 -3 5 3 -7 12
30 59 44 56 4 -2 5 5 2 14 -4 10 -2 14 5 9 6 -3 13 -2 17 4 4 6 11 7 17 4 7
-5 8 -2 3 5 -9 16 31 55 47 45 6 -4 8 -3 5 2 -10 16 16 40 69 63 12 5 24 17
28 26 3 10 13 15 20 12 8 -3 17 1 20 9 3 8 13 14 23 14 15 0 16 2 3 10 -11 7
-7 10 19 10 25 0 32 4 28 15 -7 18 9 30 19 14 4 -8 9 -7 15 2 7 12 9 11 9 -1
1 -9 5 -6 10 8 6 15 18 22 35 22 14 0 25 6 25 13 0 8 4 7 10 -3 8 -13 10 -12
10 3 0 10 4 15 10 12 5 -3 21 2 35 11 20 13 25 13 25 3 1 -9 4 -8 11 4 9 15
13 16 27 5 12 -10 14 -10 8 0 -4 7 -1 12 8 13 9 1 26 2 39 3 13 1 21 8 19 16
-1 10 3 8 13 -4 14 -19 15 -19 15 -2 0 13 5 17 20 13 11 -3 20 0 20 6 0 8 3 8
8 2 8 -11 64 -16 57 -5 -3 4 4 10 15 13 11 3 18 1 14 -4 -3 -5 0 -9 5 -9 6 0
11 4 11 9 0 6 12 6 30 1 19 -6 28 -5 24 1 -3 6 5 8 20 5 16 -3 26 0 26 7 0 7
4 7 9 -2 8 -12 12 -12 25 -2z m887 -286 c13 -16 12 -17 -3 -4 -17 13 -22 21
-14 21 2 0 10 -8 17 -17z m-3271 -267 c0 -3 -4 -8 -10 -11 -5 -3 -10 -1 -10 4
0 6 5 11 10 11 6 0 10 -2 10 -4z m6117 -1392 c-3 -3 -12 -4 -19 -1 -8 3 -5 6
6 6 11 1 17 -2 13 -5z m-6830 -1994 c87 1 163 1 168 0 6 -2 13 -2 18 -1 4 0 7
-3 7 -9 0 -5 5 -10 11 -10 5 0 8 4 5 8 -3 5 1 9 9 9 8 0 11 -5 8 -10 -4 -6 0
-8 10 -4 10 3 17 3 17 -1 0 -5 13 -7 30 -6 16 1 27 -2 24 -7 -3 -5 -11 -6 -17
-3 -7 4 -8 3 -4 -2 5 -5 14 -9 20 -9 40 -2 87 -19 87 -31 0 -12 18 -19 42 -15
4 0 10 -8 13 -19 4 -11 15 -20 26 -20 11 0 17 -4 14 -10 -3 -5 1 -10 9 -10 9
0 16 -9 16 -20 0 -11 6 -19 13 -17 7 1 11 -7 11 -21 -1 -19 1 -20 14 -10 13
11 15 10 9 -4 -3 -9 1 -22 9 -28 8 -7 14 -23 14 -37 0 -15 4 -22 11 -17 7 4 9
0 5 -14 -4 -11 -2 -23 3 -26 6 -4 8 -13 4 -21 -3 -9 0 -21 6 -29 7 -8 11 -53
10 -116 0 -65 -4 -98 -10 -89 -6 9 -9 10 -9 2 0 -6 4 -15 10 -18 6 -4 5 -13
-2 -25 -7 -10 -16 -16 -22 -13 -5 4 -6 1 -1 -8 13 -20 13 -48 1 -46 -6 1 -10
-8 -8 -20 2 -13 -2 -23 -8 -23 -6 0 -8 5 -4 12 4 7 3 8 -4 4 -6 -4 -9 -13 -5
-21 7 -19 -16 -47 -31 -38 -6 4 -4 -2 4 -12 8 -10 10 -16 4 -12 -7 4 -19 -4
-28 -18 -9 -14 -21 -23 -26 -20 -6 4 -10 -1 -10 -9 0 -9 -6 -16 -14 -16 -8 0
-16 -8 -18 -17 -2 -10 -12 -18 -23 -18 -12 0 -19 -6 -17 -14 3 -12 1 -12 -13
-1 -14 11 -16 11 -13 -1 2 -9 -4 -13 -16 -11 -11 2 -15 -1 -11 -7 3 -6 -1 -11
-10 -11 -10 0 -14 5 -10 13 4 6 1 5 -7 -4 -7 -9 -19 -14 -27 -11 -9 3 -11 0
-6 -8 6 -10 4 -12 -7 -7 -9 3 -21 0 -27 -6 -8 -8 -11 -8 -11 2 0 7 -5 9 -10 6
-6 -4 -7 -12 -3 -18 4 -7 -2 -5 -12 3 -10 8 -16 10 -12 3 5 -8 -9 -11 -50 -11
-32 0 -60 -1 -63 -1 -17 -6 -220 -2 -229 3 -6 4 -11 2 -11 -4 0 -7 -6 -8 -16
-2 -9 5 -33 6 -55 2 -21 -4 -41 -5 -43 -2 -3 2 -43 5 -88 5 -51 -1 -86 4 -90
11 -6 8 -8 7 -8 -1 0 -7 -5 -13 -11 -13 -5 0 -7 5 -4 10 3 6 -4 10 -17 10 -18
0 -20 -2 -8 -10 10 -7 11 -10 2 -10 -7 0 -15 6 -18 14 -3 8 -12 12 -20 9 -8
-3 -24 3 -34 12 -11 10 -20 15 -20 10 0 -4 -7 -2 -15 5 -8 7 -15 9 -15 4 0 -4
-12 3 -27 17 -17 14 -22 16 -13 5 9 -11 -5 -5 -32 14 -27 19 -48 41 -48 49 0
12 -2 13 -8 3 -6 -9 -12 -6 -22 12 -7 14 -18 22 -24 19 -6 -4 -5 1 3 10 8 10
11 20 7 24 -3 3 -6 1 -6 -5 0 -7 -5 -12 -11 -12 -5 0 -8 4 -5 9 4 5 2 11 -3
13 -5 1 -11 10 -13 18 -2 8 -11 22 -21 32 -13 12 -15 18 -6 24 9 5 7 11 -6 20
-10 7 -15 19 -12 27 3 7 -1 24 -9 38 -15 27 -19 52 -4 29 6 -9 10 -10 10 -3 0
6 -5 15 -11 19 -6 3 -9 17 -6 30 2 13 0 24 -6 24 -5 0 -4 7 3 15 7 8 8 15 4
15 -10 0 -7 85 3 110 4 8 7 22 7 30 2 24 16 41 28 34 7 -4 8 -2 4 5 -4 6 -11
9 -15 7 -4 -3 -8 1 -8 9 0 8 4 12 9 9 4 -3 8 2 8 11 0 10 5 13 13 9 7 -5 6 0
-3 11 -9 11 -10 16 -2 11 7 -4 12 -1 12 8 0 9 4 16 9 16 8 0 21 30 25 55 0 6
6 10 11 10 16 0 55 31 48 38 -3 4 -1 7 6 7 7 0 10 4 6 9 -3 6 4 8 16 6 16 -3
18 -1 10 9 -8 10 -6 12 11 11 12 -1 33 9 46 22 27 27 41 31 21 6 -10 -12 -5
-11 14 4 16 13 36 19 50 16 18 -4 19 -3 7 7 -12 9 -9 11 17 6 22 -4 33 -1 37
9 5 15 6 15 204 16 77 0 101 3 95 12 -5 8 -2 8 9 -1 12 -10 58 -13 175 -12z
m2326 -1 c148 3 360 3 372 0 6 -1 13 -1 16 -1 7 1 118 2 139 2 8 -1 83 0 165
0 83 1 155 1 160 0 6 -1 13 -2 16 -2 7 1 118 2 139 2 8 -1 83 0 165 0 83 1
155 1 160 0 6 -1 13 -2 16 -2 7 1 118 2 139 2 8 -1 83 0 165 0 83 1 155 1 160
0 6 -1 13 -2 16 -2 7 1 118 2 139 2 8 -1 83 0 165 0 83 1 155 1 160 0 6 -1 13
-2 16 -2 7 1 118 2 139 2 8 -1 83 0 165 0 83 1 155 1 160 0 6 -1 13 -2 16 -2
7 1 118 2 139 2 8 -1 83 0 165 0 83 1 155 1 160 0 6 -1 13 -2 16 -2 7 1 118 2
139 2 8 -1 83 0 165 0 83 1 155 1 160 0 6 -1 13 -2 16 -2 7 1 118 2 139 2 8
-1 83 0 165 0 83 1 152 1 155 0 3 0 46 -2 97 -2 50 -1 90 -5 87 -10 -3 -4 6
-9 20 -9 57 -3 64 -5 79 -18 10 -7 17 -10 17 -5 0 5 7 0 15 -10 8 -11 15 -14
15 -7 0 7 5 9 10 6 6 -4 7 -11 4 -17 -4 -6 -3 -8 3 -5 5 3 27 -5 49 -18 21
-14 35 -25 29 -25 -5 0 1 -6 15 -13 14 -8 24 -20 22 -28 -2 -8 -1 -11 3 -7 10
10 42 -25 37 -41 -3 -8 -1 -12 4 -9 5 3 15 0 22 -8 8 -9 9 -14 2 -14 -6 0 -8
-5 -5 -10 4 -6 11 -7 17 -4 6 4 8 2 4 -4 -3 -6 -2 -13 4 -17 6 -4 7 -11 4 -17
-4 -6 -2 -13 4 -17 5 -3 11 -22 13 -41 2 -19 7 -37 11 -40 4 -4 8 -44 7 -90 0
-133 -1 -139 -18 -132 -13 5 -14 3 -4 -9 13 -16 6 -62 -8 -53 -5 3 -6 -3 -2
-12 5 -13 3 -15 -8 -9 -12 8 -12 6 0 -8 13 -16 8 -22 -13 -18 -5 1 -3 -6 5
-15 8 -10 9 -15 3 -11 -7 4 -14 -3 -18 -18 -4 -14 -11 -23 -15 -20 -5 3 -7 -5
-3 -17 5 -21 4 -22 -12 -9 -9 8 -16 10 -15 5 3 -20 -2 -35 -10 -29 -5 3 -12
-4 -16 -15 -3 -11 -13 -20 -21 -20 -8 0 -14 -7 -14 -16 0 -8 -4 -13 -9 -10 -5
3 -12 -1 -15 -9 -3 -8 -9 -15 -13 -14 -21 4 -33 -2 -27 -12 5 -8 -3 -10 -24
-7 -27 4 -30 2 -20 -11 7 -9 9 -13 4 -9 -5 4 -21 1 -35 -7 -15 -7 -34 -13 -41
-13 -31 2 -51 -2 -46 -10 8 -13 -46 -13 -61 -1 -11 10 -12 8 -7 -6 6 -13 4
-16 -5 -10 -12 7 -33 7 -159 2 -28 -1 -52 0 -52 3 0 6 -106 4 -124 -3 -8 -3
-17 -3 -20 1 -7 7 -123 5 -134 -2 -5 -3 -14 -1 -21 3 -7 5 -28 5 -47 1 -22 -5
-42 -3 -59 6 -14 7 -23 9 -20 4 3 -4 -15 -9 -40 -10 -59 -1 -65 -1 -95 3 -14
2 -29 1 -33 -1 -14 -7 -214 -5 -226 2 -6 4 -11 2 -11 -4 0 -7 -6 -8 -15 -2 -9
4 -38 5 -65 2 -28 -4 -50 -4 -50 -1 0 7 -105 5 -124 -2 -8 -3 -17 -3 -20 0 -3
4 -27 6 -54 5 -98 -3 -188 -2 -209 2 -13 3 -25 0 -28 -5 -4 -5 -10 -7 -14 -4
-5 2 -55 4 -112 4 -138 0 -130 0 -159 4 -14 2 -29 1 -33 -1 -11 -5 -188 -5
-193 1 -3 3 -20 1 -39 -3 -23 -5 -43 -3 -60 6 -14 7 -23 9 -20 4 3 -4 -15 -9
-40 -10 -59 -1 -65 -1 -95 3 -14 2 -29 1 -33 -1 -14 -7 -214 -5 -226 2 -6 4
-11 2 -11 -4 0 -7 -6 -8 -16 -2 -9 5 -31 6 -49 2 -18 -4 -38 -4 -45 0 -7 4
-27 4 -46 0 -22 -5 -42 -3 -59 6 -14 7 -23 9 -20 4 3 -4 -15 -9 -40 -10 -59
-1 -65 -1 -95 3 -14 2 -29 1 -33 -1 -14 -7 -214 -5 -226 2 -6 4 -11 2 -11 -4
0 -7 -6 -8 -19 -1 -10 6 -21 8 -24 5 -6 -7 -142 -6 -174 0 -13 3 -25 0 -28 -5
-4 -5 -10 -7 -14 -4 -5 2 -55 4 -112 4 -138 0 -130 0 -159 4 -14 2 -28 1 -33
-1 -12 -6 -207 -8 -207 -2 0 6 -106 4 -124 -3 -8 -3 -17 -3 -20 1 -4 3 -34 5
-69 3 -59 -2 -71 -2 -99 0 -7 1 -26 0 -43 0 -95 -4 -200 1 -211 10 -7 6 -31
11 -52 12 -22 1 -37 6 -34 11 3 5 -2 7 -10 3 -9 -3 -24 2 -35 12 -11 10 -30
16 -43 14 -19 -2 -22 -1 -10 7 8 5 12 10 8 11 -5 1 -12 3 -18 4 -5 1 -17 3
-26 4 -8 0 -13 5 -10 10 7 11 -22 23 -35 16 -5 -4 -6 1 -3 9 4 9 -1 18 -10 22
-9 3 -13 10 -10 15 3 5 2 9 -3 8 -28 -5 -35 1 -22 19 7 9 10 14 5 10 -10 -8
-36 14 -29 25 2 4 -4 7 -14 7 -15 0 -16 2 -3 10 13 8 12 10 -3 10 -13 0 -17 6
-15 23 2 15 -2 21 -11 19 -12 -3 -12 -1 0 14 12 15 12 17 0 9 -11 -6 -13 -3
-9 13 4 12 2 22 -3 22 -4 0 -5 7 -2 17 4 10 2 14 -4 10 -12 -8 -11 188 1 233
5 21 5 22 -3 5 -8 -17 -10 -17 -10 -3 -1 9 4 20 10 23 6 4 8 13 5 21 -3 7 2
20 10 29 9 8 13 15 9 15 -3 0 -1 9 5 20 7 12 16 18 23 13 7 -4 7 0 -2 10 -10
13 -10 17 -1 17 7 0 10 7 6 15 -3 8 0 14 7 12 7 -1 11 6 9 17 -2 10 1 15 6 12
11 -6 46 18 48 33 1 6 2 15 3 21 0 5 8 7 16 4 10 -4 15 0 15 12 0 9 3 14 6 11
4 -4 15 2 25 14 12 14 18 16 22 7 4 -8 6 -7 6 5 1 9 4 16 9 16 22 -4 42 2 37
11 -3 5 0 7 8 4 8 -3 19 2 26 10 10 12 18 13 33 5 15 -8 19 -8 14 0 -5 7 5 11
28 11 20 0 36 4 36 8 0 5 34 9 76 10 42 1 79 4 82 6 2 3 9 3 14 0 5 -4 55 -6
111 -5z m-573 -153 c0 -3 -4 -8 -10 -11 -5 -3 -10 -1 -10 4 0 6 5 11 10 11 6
0 10 -2 10 -4z m-1975 -1846 c2 4 26 4 52 0 27 -3 60 -3 73 0 14 3 44 3 68 0
23 -4 45 -3 48 2 3 4 9 6 13 4 4 -3 44 -6 89 -7 57 -1 80 -5 75 -13 -4 -6 2
-4 12 4 15 12 17 12 10 1 -6 -11 -4 -13 7 -8 9 3 21 0 27 -6 6 -6 11 -7 11 -3
0 5 8 2 17 -5 11 -9 14 -10 9 -2 -5 9 -2 11 8 7 9 -3 16 -10 16 -14 0 -5 10
-6 23 -3 18 4 19 3 7 -7 -13 -9 -12 -11 5 -8 11 2 27 -4 35 -12 13 -14 14 -14
5 0 -10 15 33 -16 46 -33 3 -5 9 -8 13 -8 19 3 29 0 23 -6 -4 -3 2 -13 13 -20
11 -8 18 -19 15 -24 -6 -8 9 -13 28 -10 5 1 6 -3 2 -9 -3 -5 -1 -10 4 -10 6 0
11 -7 11 -16 0 -8 4 -13 9 -9 6 3 8 -4 6 -15 -2 -13 1 -20 11 -20 9 0 14 -11
14 -30 0 -16 5 -30 11 -30 5 0 7 -5 4 -10 -4 -6 -1 -17 5 -25 7 -8 9 -15 5
-15 -4 0 -1 -8 6 -17 12 -15 12 -16 -1 -8 -13 8 -13 7 -1 -8 11 -14 11 -17 0
-17 -11 0 -11 -2 -1 -8 9 -6 12 -36 10 -109 -2 -56 -6 -99 -9 -97 -4 2 -10
-16 -13 -41 -4 -25 -11 -45 -16 -45 -4 0 -11 -7 -14 -16 -4 -10 -2 -13 7 -8
12 8 -5 -17 -31 -44 -7 -8 -10 -18 -7 -23 4 -5 1 -9 -5 -9 -7 0 -9 -7 -6 -16
5 -13 4 -14 -7 -5 -11 8 -16 5 -25 -14 -6 -14 -19 -25 -27 -25 -9 0 -13 -4
-10 -10 6 -9 -8 -14 -27 -11 -5 0 -7 -5 -5 -12 1 -6 -7 -12 -18 -12 -11 -1
-19 -7 -17 -13 1 -8 -5 -12 -15 -10 -11 2 -17 -2 -15 -10 2 -10 -2 -10 -19 -1
-15 8 -19 8 -15 0 5 -7 -1 -11 -14 -11 -14 0 -19 -4 -14 -12 4 -7 4 -10 -1 -6
-4 4 -23 1 -42 -7 -41 -17 -55 -19 -33 -5 13 8 12 10 -2 10 -10 0 -18 -4 -18
-10 0 -5 -28 -10 -62 -10 -35 0 -70 -1 -78 -1 -8 0 -123 0 -254 1 -171 1 -244
4 -255 13 -11 9 -13 9 -8 0 5 -8 1 -11 -12 -10 -10 0 -17 6 -15 12 3 8 -10 10
-38 8 -31 -2 -39 0 -28 7 13 8 12 10 -5 11 -11 1 -25 1 -31 0 -6 -1 -17 5 -23
13 -7 8 -19 12 -27 9 -9 -3 -14 1 -14 13 0 16 -2 17 -10 4 -8 -13 -10 -12 -10
3 0 10 -4 15 -10 12 -5 -3 -10 -1 -10 6 0 7 -3 10 -6 6 -3 -3 -21 11 -40 31
-19 20 -46 49 -60 64 -14 15 -23 31 -20 36 3 6 -1 13 -9 16 -10 4 -14 14 -11
32 4 20 2 23 -8 15 -11 -9 -13 -5 -14 21 0 56 -1 60 -14 52 -8 -5 -7 0 2 11 9
11 10 16 3 11 -9 -5 -13 1 -13 19 0 18 4 24 13 19 9 -6 9 -4 1 7 -14 16 -13
117 0 138 6 9 5 12 -2 7 -6 -4 -10 1 -9 13 0 11 5 17 11 14 5 -4 7 1 3 9 -3 9
0 21 6 28 9 10 9 11 0 6 -9 -5 -11 -2 -7 8 3 9 11 13 18 9 6 -4 5 1 -3 10 -12
15 -9 21 11 18 4 0 5 9 3 20 -2 11 2 22 10 25 7 3 12 14 10 25 -2 10 -1 18 3
16 4 -1 8 1 10 6 5 15 37 44 45 40 4 -3 7 -1 6 4 -3 20 2 34 11 28 6 -3 10 -1
10 5 0 6 5 8 10 5 6 -3 10 0 10 8 0 16 27 30 41 22 5 -4 6 2 2 11 -4 12 -3 15
5 10 7 -4 12 -3 12 2 0 6 8 9 18 8 10 0 16 5 14 13 -3 12 -1 12 14 0 10 -8 15
-9 11 -3 -4 7 0 15 9 18 8 3 12 2 9 -4 -3 -6 1 -7 9 -4 9 3 16 11 16 16 0 6 8
4 17 -3 11 -10 14 -10 9 -1 -7 12 4 16 33 13 8 -2 10 2 5 11 -5 9 -2 8 11 -2
11 -9 16 -10 11 -2 -4 6 -3 12 1 12 5 0 15 -6 22 -12 11 -10 12 -10 7 -1 -5
10 7 13 49 12 31 -1 58 0 60 3 3 3 26 2 50 -2 25 -4 48 -4 50 0z m2605 0 c14
3 44 3 68 0 23 -4 45 -4 47 0 2 4 26 4 52 0 27 -3 60 -3 73 0 14 3 44 3 68 0
23 -4 45 -4 47 0 2 4 26 4 52 0 27 -3 60 -3 73 0 14 3 44 3 68 0 23 -4 45 -4
47 0 2 4 26 4 52 0 27 -3 60 -3 73 0 14 3 44 3 68 0 23 -4 45 -4 47 0 2 4 26
4 52 0 27 -3 60 -3 73 0 14 3 44 3 68 0 23 -4 45 -4 47 0 2 4 26 4 52 0 27 -3
60 -3 73 0 14 3 44 3 68 0 23 -4 45 -3 48 2 3 4 9 6 14 3 8 -5 68 -6 173 -4
31 1 60 -1 63 -4 3 -3 17 -2 32 2 14 4 46 4 69 1 24 -4 46 -4 48 0 2 4 26 4
52 0 27 -3 60 -3 73 0 14 3 44 3 68 0 23 -4 45 -4 47 0 2 4 26 4 53 0 27 -3
61 -3 75 1 15 4 29 3 33 -2 3 -5 10 -7 15 -3 5 3 34 5 64 4 30 0 63 -1 73 -1
9 1 46 0 82 0 36 -1 72 -1 80 0 8 0 44 0 80 0 36 -1 72 -1 80 0 8 0 44 0 80 0
36 -1 72 -1 80 0 8 0 51 1 95 0 44 0 87 0 95 0 61 2 113 0 120 -4 5 -3 11 -2
14 3 3 5 27 6 53 2 27 -3 60 -3 73 0 14 3 44 3 68 0 23 -4 45 -4 47 0 2 4 26
4 52 0 27 -3 60 -3 73 0 14 3 44 3 68 0 23 -4 45 -4 47 0 2 4 26 4 52 0 27 -3
60 -3 73 0 14 3 44 3 68 0 23 -4 45 -4 47 0 2 4 26 4 52 0 27 -3 60 -3 73 0
14 3 44 3 68 0 23 -4 45 -3 48 2 3 4 9 6 13 4 4 -3 43 -5 87 -5 159 -1 179 -2
193 -14 12 -10 13 -9 7 3 -6 13 -5 13 6 0 7 -9 22 -14 33 -12 18 4 18 3 5 -14
-14 -18 -14 -18 6 -1 23 19 39 23 29 7 -4 -6 7 -10 24 -10 23 0 31 -5 31 -17
0 -15 2 -16 10 -3 7 11 10 11 10 2 0 -7 5 -10 10 -7 6 3 10 -2 10 -12 0 -14 2
-15 9 -4 7 10 11 9 22 -6 8 -11 22 -22 33 -26 11 -5 16 -13 12 -23 -4 -9 -2
-12 5 -8 12 7 71 -51 61 -60 -3 -3 0 -6 7 -6 7 0 9 -4 6 -10 -3 -5 2 -10 12
-10 15 0 16 -2 3 -10 -14 -9 -7 -15 14 -11 5 1 6 -5 3 -14 -4 -8 -2 -15 4 -15
6 0 7 -5 3 -11 -3 -6 -2 -14 4 -18 6 -4 12 -23 14 -44 1 -20 5 -37 9 -37 4 0
9 -36 11 -80 2 -44 0 -80 -4 -80 -4 0 -5 -15 -4 -34 3 -28 1 -33 -13 -28 -12
4 -14 3 -6 -9 14 -19 12 -55 -3 -52 -7 2 -12 -4 -12 -13 0 -8 4 -13 9 -9 5 3
3 -8 -5 -25 -9 -16 -19 -30 -24 -30 -4 0 -6 -10 -4 -22 2 -13 2 -17 -2 -10 -8
17 -25 15 -18 -2 3 -8 -3 -20 -14 -27 -19 -14 -22 -19 -22 -39 0 -5 -7 -6 -17
-3 -11 4 -14 3 -9 -5 4 -7 2 -12 -4 -12 -6 0 -8 -5 -4 -12 5 -8 2 -9 -9 -5
-10 3 -17 2 -17 -4 0 -5 -12 -14 -26 -19 -16 -7 -23 -14 -18 -22 6 -10 5 -10
-7 -2 -11 9 -17 9 -26 -1 -6 -7 -9 -17 -5 -21 4 -5 -2 -2 -12 6 -16 12 -18 12
-11 1 6 -11 2 -13 -18 -9 -17 3 -24 1 -20 -5 4 -6 0 -8 -11 -4 -11 4 -15 3
-10 -4 4 -6 -1 -9 -13 -7 -11 2 -28 -4 -38 -12 -17 -13 -18 -13 -10 0 8 13 7
13 -8 1 -14 -11 -17 -11 -17 0 0 10 -2 11 -8 2 -5 -8 -90 -12 -310 -12 -167 0
-307 -3 -312 -6 -5 -3 -11 -1 -15 5 -4 6 -10 8 -14 6 -10 -6 -74 -7 -1054 -6
-455 0 -832 -2 -837 -5 -5 -3 -11 -1 -15 5 -4 6 -10 8 -14 6 -9 -6 -110 -7
-576 -6 -187 0 -344 0 -350 -1 -5 -1 -13 -1 -17 0 -14 2 -213 2 -223 1 -5 -1
-14 -2 -19 -1 -11 2 -368 2 -381 0 -5 -1 -13 -1 -17 0 -13 2 -213 3 -223 1 -5
-1 -24 -1 -41 0 -18 1 -69 2 -115 4 -46 1 -93 6 -104 10 -17 7 -17 6 -5 -4 13
-10 12 -11 -5 -5 -11 4 -30 10 -42 12 -13 3 -24 13 -24 22 -1 14 -2 13 -6 -1
-4 -16 -6 -16 -19 -4 -8 8 -23 13 -34 11 -11 -2 -20 1 -20 6 0 6 -4 7 -10 4
-5 -3 -10 -1 -10 5 0 6 -5 8 -12 4 -8 -5 -9 -2 -5 9 3 9 3 16 -1 16 -30 -5
-54 3 -49 15 4 10 0 13 -14 11 -18 -4 -19 -2 -7 12 10 13 10 15 0 9 -16 -10
-44 12 -35 28 4 6 -2 4 -12 -4 -10 -8 -16 -10 -12 -3 10 16 -13 53 -33 53 -13
0 -13 1 0 10 8 5 10 10 4 10 -16 0 -38 56 -28 71 4 7 3 10 -3 6 -12 -8 -26 20
-17 34 3 5 1 9 -5 9 -6 0 -7 7 -4 17 4 10 2 14 -4 10 -7 -4 -10 35 -11 116 -1
80 2 117 8 107 13 -20 13 -4 0 20 -8 15 -6 21 7 29 10 6 14 11 9 11 -5 0 -2 8
5 17 10 11 10 14 2 9 -19 -11 -16 2 7 26 11 12 20 30 20 39 0 10 7 24 15 33 8
8 15 20 15 26 0 6 5 8 12 4 8 -5 9 -2 5 9 -3 10 -2 17 3 17 16 0 60 47 52 55
-4 5 -2 5 5 1 7 -4 21 2 33 14 11 11 20 15 20 8 0 -6 8 -2 18 9 9 11 23 18 31
15 8 -2 11 0 8 5 -4 6 3 10 16 9 13 -1 21 4 19 12 -2 10 2 10 19 1 15 -8 19
-8 15 0 -5 7 4 11 26 11 21 0 28 3 20 8 -8 6 -2 9 17 9 19 0 28 -4 24 -11 -4
-6 0 -5 9 2 11 9 44 13 103 11 47 -1 88 0 90 3 3 2 26 2 53 -2 26 -3 59 -3 72
0z m630 -5770 c0 -5 -2 -10 -4 -10 -3 0 -8 5 -11 10 -3 6 -1 10 4 10 6 0 11
-4 11 -10z m-5373 -392 c-3 -8 -6 -5 -6 6 -1 11 2 17 5 13 3 -3 4 -12 1 -19z"/>
<path d="M7405 13991 c6 -11 4 -13 -9 -8 -9 4 -15 3 -12 -2 3 -5 -8 -14 -24
-20 -17 -5 -30 -8 -30 -5 0 3 -6 -1 -14 -8 -8 -7 -11 -17 -8 -23 3 -5 -2 -4
-12 4 -9 8 -16 10 -14 5 4 -13 -39 -54 -48 -46 -4 4 -4 -1 -1 -10 4 -10 3 -18
-1 -18 -5 0 -17 -7 -28 -16 -10 -8 -12 -12 -4 -8 10 5 9 0 -4 -14 -11 -12 -16
-22 -12 -22 4 0 -2 -10 -13 -22 -11 -11 -18 -25 -15 -30 3 -4 0 -8 -6 -8 -7 0
-10 -6 -7 -14 3 -8 -1 -17 -10 -20 -9 -4 -13 -9 -9 -13 3 -3 -2 -15 -11 -26
-13 -15 -14 -19 -3 -13 8 4 7 1 -3 -7 -11 -9 -14 -16 -7 -19 6 -2 8 -11 5 -21
-4 -9 -12 -14 -18 -10 -6 4 -8 0 -4 -10 3 -9 2 -19 -4 -23 -6 -4 -5 -12 3 -22
8 -9 8 -13 2 -9 -13 7 -27 -19 -19 -33 3 -5 0 -12 -6 -16 -8 -4 -7 -9 2 -15
11 -7 10 -9 -5 -9 -15 0 -16 -3 -7 -14 8 -10 9 -16 1 -21 -6 -4 -10 -12 -9
-18 3 -26 -1 -48 -9 -43 -13 8 -12 -37 1 -53 9 -11 9 -13 0 -8 -9 6 -11 -4
-10 -33 2 -22 -2 -41 -7 -43 -5 -2 -10 -11 -12 -20 -1 -9 2 -15 7 -11 5 3 9
-2 9 -11 0 -9 -4 -14 -9 -11 -5 3 -9 -35 -9 -84 l0 -90 27 0 c14 0 62 1 105 1
44 0 83 2 87 5 4 2 10 1 13 -4 2 -4 23 -6 45 -4 27 3 39 8 34 16 -4 6 0 6 9
-2 15 -12 62 -14 302 -12 39 1 74 4 79 7 6 3 8 2 5 -3 -4 -5 21 -8 55 -7 34 1
75 2 90 2 20 1 26 5 21 14 -6 9 -5 9 7 0 9 -7 39 -12 67 -12 l51 2 -2 93 c-1
70 -4 94 -14 94 -16 0 -17 16 -1 26 7 5 8 3 3 -6 -5 -9 -4 -11 4 -6 7 5 9 12
3 19 -14 19 -23 49 -12 42 7 -4 7 3 0 19 -5 14 -7 33 -5 44 2 10 -1 25 -7 33
-8 11 -9 10 -4 -4 3 -10 2 -16 -2 -13 -4 2 -7 29 -6 60 1 32 -4 60 -10 66 -7
5 -12 29 -11 54 0 24 -2 44 -5 44 -3 0 -12 0 -20 1 -13 1 -13 2 0 11 9 6 11
10 3 10 -7 0 -10 7 -7 15 4 8 2 15 -4 15 -5 0 -9 8 -8 18 0 9 -4 16 -11 15 -7
-2 -10 3 -7 11 3 8 -1 28 -10 44 -8 16 -12 32 -9 36 4 3 -2 6 -11 6 -13 0 -17
6 -13 20 3 13 0 20 -10 20 -8 0 -12 4 -8 9 3 5 -2 16 -10 24 -8 9 -15 21 -15
27 0 6 -4 8 -10 5 -5 -3 -10 3 -10 14 0 19 -10 26 -32 22 -5 0 -8 6 -8 15 0 8
-4 12 -10 9 -5 -3 -10 1 -10 9 0 10 -7 13 -21 11 -18 -4 -19 -2 -7 12 10 14
10 15 0 9 -8 -5 -19 -1 -28 10 -9 11 -12 13 -8 5 5 -10 3 -12 -7 -5 -8 5 -25
10 -39 12 -13 2 -27 8 -31 13 -3 5 -38 9 -77 8 -50 -1 -70 -5 -65 -13 4 -6 -2
-4 -12 4 -15 12 -17 12 -10 1z m-360 -651 c3 -5 1 -10 -4 -10 -6 0 -11 5 -11
10 0 6 2 10 4 10 3 0 8 -4 11 -10z"/>
<path d="M3835 12980 c3 -5 8 -10 11 -10 2 0 4 5 4 10 0 6 -5 10 -11 10 -5 0
-7 -4 -4 -10z"/>
<path d="M13863 7973 c8 -13 -1 -15 -70 -16 -14 -1 -23 -7 -24 -16 0 -11 -2
-12 -6 -3 -7 19 -23 4 -16 -16 5 -15 4 -15 -9 1 -13 18 -16 16 -58 -25 -25
-23 -49 -42 -54 -40 -5 2 -6 -4 -3 -12 4 -11 1 -13 -10 -9 -11 4 -14 2 -9 -5
4 -7 3 -12 -3 -12 -5 0 -12 -9 -16 -19 -4 -14 -11 -18 -23 -14 -15 6 -15 5 -3
-10 12 -15 12 -17 -3 -11 -9 3 -16 2 -16 -3 0 -18 -46 -59 -60 -55 -9 2 -7 -3
5 -13 11 -9 15 -14 9 -11 -7 3 -17 -1 -24 -9 -7 -8 -16 -12 -21 -9 -5 3 -6 -3
-2 -12 5 -13 3 -16 -10 -11 -16 6 -23 -8 -18 -36 1 -5 -3 -6 -8 -2 -6 3 -15
-4 -21 -15 -6 -11 -15 -18 -20 -15 -6 4 -7 -1 -3 -11 5 -13 3 -16 -10 -11 -11
4 -14 2 -10 -9 5 -12 -7 -19 -29 -15 -13 2 -9 -17 5 -22 8 -4 6 -6 -4 -6 -9
-1 -24 -11 -35 -23 -10 -12 -13 -18 -5 -13 10 6 12 4 7 -4 -5 -7 -15 -10 -24
-6 -9 3 -13 3 -9 -1 4 -4 -1 -13 -11 -21 -10 -9 -11 -12 -2 -7 8 4 2 -5 -13
-19 -15 -15 -33 -27 -38 -27 -6 0 -7 -4 -4 -10 3 -5 -5 -15 -19 -21 -14 -7
-22 -17 -19 -25 5 -12 -8 -19 -29 -15 -5 0 -7 -2 -7 -7 4 -23 -3 -34 -17 -28
-15 6 -15 4 -3 -11 8 -9 9 -14 2 -10 -13 8 -45 -31 -37 -44 2 -4 -4 -6 -15 -4
-13 2 -18 -1 -15 -10 3 -7 0 -16 -7 -21 -8 -5 -10 -3 -4 6 5 9 4 11 -3 6 -7
-4 -12 -16 -12 -26 0 -10 -4 -22 -10 -25 -6 -3 -8 2 -5 12 3 10 1 9 -6 -4 -7
-13 -20 -25 -29 -28 -12 -4 -16 -13 -13 -28 3 -16 2 -18 -5 -8 -8 11 -11 9
-17 -8 -4 -13 -12 -20 -20 -17 -9 3 -12 0 -8 -10 4 -10 -2 -17 -17 -21 -16 -4
-18 -8 -8 -14 10 -7 9 -9 -5 -9 -10 0 -15 -4 -12 -10 3 -5 1 -10 -5 -10 -6 0
-8 -5 -4 -12 5 -8 0 -7 -11 2 -11 9 -16 10 -11 3 5 -9 1 -13 -11 -14 -10 0
-13 -3 -5 -6 20 -8 14 -23 -9 -23 -13 0 -19 -5 -17 -12 6 -17 -29 -51 -36 -35
-2 7 -5 1 -5 -12 -1 -16 -5 -21 -15 -18 -10 4 -13 1 -10 -7 3 -7 -2 -16 -11
-20 -11 -4 -15 -12 -11 -22 5 -14 4 -15 -8 -5 -11 9 -16 6 -24 -19 -6 -16 -14
-30 -17 -30 -3 0 -3 5 1 12 4 7 3 8 -4 4 -7 -4 -12 -14 -12 -22 0 -8 -5 -14
-11 -14 -5 0 -7 -5 -4 -10 4 -6 1 -9 -7 -8 -7 2 -12 -3 -10 -9 1 -7 -3 -13 -9
-13 -14 0 -59 -47 -59 -60 0 -5 -6 -7 -14 -4 -11 4 -13 0 -9 -15 4 -17 2 -20
-12 -14 -13 4 -16 3 -11 -5 4 -7 2 -12 -3 -12 -6 0 -11 -8 -11 -17 0 -15 -2
-16 -10 -3 -8 12 -10 10 -10 -10 0 -20 -2 -22 -10 -10 -8 13 -10 12 -10 -3 0
-11 -4 -15 -12 -11 -6 4 -8 3 -5 -3 3 -5 -3 -17 -14 -26 -11 -10 -17 -22 -14
-27 3 -6 -1 -10 -9 -10 -9 0 -16 -5 -16 -11 0 -5 -4 -7 -10 -4 -5 3 -10 -1
-10 -9 0 -9 -5 -16 -11 -16 -5 0 -7 -5 -3 -12 5 -8 2 -9 -10 -5 -12 5 -16 2
-14 -11 2 -9 -3 -16 -9 -14 -7 1 -13 -5 -13 -13 0 -8 -5 -15 -11 -15 -5 0 -7
-5 -3 -12 5 -7 3 -8 -5 -4 -8 5 -14 0 -18 -13 -3 -11 -9 -19 -13 -16 -4 3 -11
-2 -14 -11 -3 -8 -11 -12 -17 -8 -8 4 -9 3 -5 -4 4 -7 1 -12 -6 -12 -9 0 -9
-3 2 -10 12 -8 11 -10 -7 -10 -14 0 -23 -6 -23 -15 0 -9 -7 -18 -15 -21 -8 -4
-12 -10 -9 -15 3 -5 -2 -9 -11 -9 -9 0 -13 -4 -10 -10 3 -5 -1 -10 -10 -10 -9
0 -14 -4 -11 -8 3 -5 -8 -20 -24 -35 -20 -19 -30 -23 -34 -15 -4 9 -5 8 -5 -2
2 -28 -1 -43 -7 -37 -9 9 -47 -30 -40 -42 4 -6 -2 -8 -15 -6 -17 4 -19 2 -9
-10 10 -12 9 -15 -9 -15 -14 0 -21 -6 -21 -20 0 -11 -6 -19 -12 -18 -7 2 -12
-3 -10 -10 1 -8 -2 -11 -7 -8 -5 3 -15 -2 -22 -11 -12 -14 -12 -16 1 -9 8 4 6
0 -5 -9 -11 -9 -19 -21 -17 -26 1 -6 -6 -9 -15 -7 -12 2 -17 -3 -15 -15 2 -9
-1 -16 -5 -15 -4 2 -9 -1 -11 -7 -2 -5 -14 -16 -28 -23 -14 -7 -24 -22 -24
-35 0 -18 -2 -19 -10 -7 -8 12 -10 10 -10 -10 0 -20 -2 -22 -10 -10 -8 13 -10
13 -10 -2 0 -10 -9 -22 -20 -28 -11 -6 -20 -17 -20 -25 0 -8 -7 -15 -15 -15
-8 0 -14 -4 -13 -8 2 -4 -19 -29 -46 -54 -27 -26 -45 -51 -41 -57 4 -7 1 -10
-7 -9 -7 2 -12 -3 -10 -10 1 -8 -2 -11 -8 -7 -5 3 -10 1 -10 -5 0 -6 -5 -8
-10 -5 -6 4 -9 1 -8 -7 2 -7 -3 -12 -9 -11 -7 2 -12 -3 -10 -10 1 -6 -4 -11
-11 -9 -8 1 -11 -2 -7 -9 7 -10 -21 -43 -40 -47 -5 -1 -10 -8 -10 -14 -1 -7
-6 -12 -13 -11 -6 2 -9 -3 -6 -11 5 -14 -11 -30 -31 -31 -5 -1 -9 -7 -7 -14 2
-9 -3 -11 -14 -7 -15 6 -15 4 -3 -11 9 -11 10 -14 2 -9 -8 4 -13 2 -13 -4 0
-6 -4 -8 -10 -5 -6 3 -10 -4 -10 -17 0 -18 -2 -20 -10 -8 -8 13 -10 12 -10 -3
0 -24 -47 -71 -53 -54 -3 7 -6 3 -6 -8 -1 -11 -10 -27 -21 -35 -11 -8 -20 -18
-20 -23 0 -12 -27 -37 -40 -37 -6 0 -9 -4 -6 -9 3 -5 -6 -16 -19 -25 -14 -9
-23 -21 -20 -26 4 -6 -1 -10 -9 -10 -9 0 -16 -7 -16 -15 0 -8 -6 -14 -12 -12
-7 1 -12 -4 -11 -10 2 -7 -4 -13 -13 -13 -8 0 -12 -4 -9 -10 3 -6 -4 -10 -17
-11 -22 0 -22 -1 -3 -9 18 -8 18 -9 -5 -9 -20 -1 -22 -3 -10 -11 11 -7 11 -10
2 -10 -15 0 -57 -37 -57 -51 0 -5 -4 -9 -10 -10 -5 0 -16 -11 -22 -24 -7 -13
-22 -27 -33 -30 -18 -6 -19 -9 -8 -23 7 -9 8 -13 2 -9 -11 6 -64 -37 -64 -54
0 -6 -4 -8 -8 -5 -4 2 -14 -9 -21 -26 -10 -22 -16 -27 -22 -17 -6 10 -9 5 -10
-16 0 -16 -3 -24 -6 -18 -6 17 -29 -5 -35 -33 -2 -11 -11 -18 -21 -16 -9 2
-17 -3 -17 -10 0 -8 -9 -20 -20 -28 -11 -8 -20 -20 -20 -28 0 -7 -4 -10 -10
-7 -9 6 -14 -8 -11 -27 0 -5 -9 -8 -22 -8 -18 0 -19 -2 -7 -10 13 -8 12 -10
-3 -10 -11 0 -15 -4 -11 -12 5 -8 2 -9 -10 -5 -12 5 -16 2 -14 -11 2 -9 -3
-16 -9 -15 -7 2 -12 -3 -10 -10 1 -6 -6 -11 -15 -11 -10 1 -15 -3 -12 -8 7
-10 -36 -55 -48 -51 -4 2 -5 -3 -2 -11 3 -7 -3 -19 -13 -27 -17 -13 -17 -13
-3 5 10 14 11 17 2 12 -7 -4 -18 -19 -23 -33 -6 -16 -15 -23 -24 -19 -8 3 -14
2 -13 -2 4 -14 -13 -52 -23 -52 -6 0 -17 -6 -25 -14 -11 -11 -11 -16 -1 -19 7
-4 6 -6 -4 -6 -9 -1 -24 -12 -35 -25 -10 -14 -22 -22 -28 -19 -5 4 -7 -1 -3
-10 4 -11 1 -17 -8 -17 -8 0 -15 -8 -15 -17 0 -15 -2 -16 -10 -3 -8 12 -10 10
-10 -8 0 -13 -4 -20 -10 -17 -5 3 -10 -1 -10 -9 0 -8 -5 -18 -12 -22 -7 -5 -8
-3 -3 5 5 10 2 9 -13 0 -12 -7 -18 -17 -15 -22 3 -4 -3 -7 -13 -5 -11 2 -18
-1 -17 -7 1 -5 -15 -11 -35 -12 -20 -1 -38 -7 -40 -13 -2 -5 -13 -10 -23 -10
-14 0 -18 4 -13 13 6 9 4 9 -7 1 -18 -14 -69 -17 -69 -4 0 6 -5 10 -11 10 -5
0 -7 -6 -4 -12 4 -7 0 -5 -8 5 -10 12 -17 15 -22 7 -4 -7 -13 -3 -26 11 -13
15 -19 17 -19 8 -1 -10 -6 -8 -18 6 -9 12 -25 24 -34 28 -10 3 -18 11 -18 17
0 6 -4 8 -10 5 -5 -3 -10 0 -10 8 0 8 -12 22 -26 32 -14 9 -23 22 -20 30 3 9
-3 12 -19 11 -16 -2 -22 1 -18 11 4 9 -2 16 -15 20 -12 3 -24 14 -27 24 -4 10
-10 19 -15 19 -4 0 -10 9 -13 20 -3 11 -12 20 -21 20 -9 0 -16 5 -16 11 0 5
-4 8 -9 5 -5 -3 -8 2 -7 12 0 9 -9 21 -21 27 -13 5 -23 15 -23 22 0 7 -13 22
-30 34 -16 12 -26 27 -23 32 3 6 2 7 -4 4 -11 -7 -44 28 -35 38 4 3 -2 3 -12
-1 -14 -5 -17 -4 -12 4 4 7 2 12 -4 12 -7 0 -9 7 -6 16 6 15 4 15 -11 3 -11
-9 -14 -10 -9 -1 4 7 1 15 -8 18 -9 3 -16 12 -16 20 0 8 -5 13 -12 11 -6 -1
-17 8 -23 20 -7 13 -15 20 -18 16 -4 -3 -7 1 -7 11 0 9 -4 14 -10 11 -6 -3
-10 4 -10 17 0 18 -2 20 -10 8 -8 -13 -10 -12 -10 3 0 10 -4 15 -10 12 -5 -3
-10 1 -10 10 0 11 -5 15 -14 12 -10 -4 -12 0 -8 16 5 20 4 21 -13 7 -10 -8
-16 -10 -12 -3 4 6 1 18 -7 26 -8 8 -12 17 -9 21 4 3 -5 6 -18 6 -19 0 -21 2
-9 10 13 8 13 10 -1 10 -9 0 -29 16 -43 35 -17 21 -32 33 -39 28 -7 -4 -6 1 2
10 12 15 12 17 -3 11 -9 -4 -16 -3 -15 2 4 21 -2 28 -11 14 -7 -12 -10 -8 -10
15 0 23 -3 27 -10 15 -7 -11 -10 -11 -10 -2 0 7 -5 10 -12 6 -6 -4 -8 -3 -4 4
3 6 2 13 -4 17 -6 4 -8 11 -5 16 3 5 0 6 -8 4 -7 -3 -19 5 -27 19 -7 14 -21
28 -32 32 -16 5 -22 16 -19 36 0 5 -2 7 -7 7 -20 -3 -32 2 -32 16 0 8 -4 15
-10 15 -5 0 -10 6 -10 14 0 8 -9 18 -20 21 -11 3 -20 13 -20 21 0 8 -3 13 -7
11 -10 -6 -73 59 -66 67 4 3 1 6 -6 6 -16 0 -42 26 -34 34 4 3 -1 6 -10 6 -10
0 -17 7 -17 15 0 9 -7 18 -15 21 -8 4 -12 11 -8 18 4 6 -1 5 -10 -2 -14 -12
-16 -11 -12 7 2 11 -1 24 -7 27 -7 5 -8 2 -3 -6 5 -9 4 -11 -3 -6 -7 4 -12 15
-13 24 0 11 -2 12 -6 4 -2 -6 -9 -10 -13 -7 -5 3 -7 12 -3 21 3 9 0 14 -7 12
-8 -2 -19 8 -26 20 -6 13 -17 28 -23 33 -8 6 -8 5 -1 -3 6 -7 10 -16 10 -21 0
-5 -10 3 -22 19 -12 16 -28 33 -35 37 -7 4 -13 14 -13 22 0 9 -6 12 -15 9 -14
-6 -20 11 -16 38 0 5 -2 7 -7 7 -4 -1 -14 -1 -22 0 -13 1 -13 2 0 11 12 8 11
10 -7 10 -13 0 -22 5 -20 13 1 6 -4 11 -11 9 -8 -1 -11 2 -7 8 3 5 -1 13 -9
16 -9 3 -13 10 -10 15 3 5 -3 6 -12 2 -14 -5 -16 -3 -11 11 5 14 3 17 -8 12
-9 -3 -15 0 -15 9 0 8 -7 15 -16 15 -8 0 -12 5 -9 10 3 6 1 10 -4 10 -6 0 -11
8 -11 17 0 9 -3 14 -6 10 -8 -7 -53 36 -47 46 2 4 -3 7 -12 7 -9 0 -13 5 -10
10 3 6 -1 10 -9 10 -9 0 -16 7 -16 16 0 10 -5 14 -16 10 -8 -3 -13 -2 -10 3 6
10 -49 71 -64 71 -6 0 -10 5 -10 11 0 5 6 7 13 3 7 -4 9 -3 4 2 -5 5 -14 9
-20 9 -7 1 -11 6 -10 13 2 7 -3 11 -10 9 -6 -1 -11 4 -9 12 3 12 0 12 -12 2
-13 -11 -15 -10 -11 8 2 14 -1 18 -11 14 -9 -3 -14 1 -14 12 0 9 -4 14 -9 11
-4 -3 -17 4 -27 15 -10 11 -24 17 -31 15 -7 -3 -12 0 -10 7 1 7 -4 11 -12 9
-7 -1 -18 1 -25 6 -17 14 -56 21 -56 10 0 -5 -5 -6 -10 -3 -6 4 -7 12 -3 18 5
9 3 9 -8 1 -8 -6 -30 -10 -49 -10 -19 1 -40 -2 -47 -7 -7 -5 -27 -11 -45 -14
-18 -3 -34 -9 -36 -14 -2 -5 -11 -9 -20 -9 -15 0 -15 -2 -2 -10 13 -8 13 -10
-2 -10 -9 0 -18 -4 -20 -9 -1 -5 -10 -11 -18 -13 -22 -4 -51 -39 -43 -51 3 -6
1 -7 -5 -3 -7 4 -12 1 -12 -8 0 -9 -3 -15 -7 -15 -23 4 -43 -2 -38 -11 4 -6
11 -7 17 -4 7 4 8 2 4 -4 -4 -7 -12 -12 -17 -12 -16 0 -98 -88 -90 -96 3 -4 1
-4 -6 0 -7 3 -21 -7 -33 -25 -12 -16 -28 -28 -35 -25 -9 3 -11 -2 -8 -17 4
-18 3 -19 -6 -7 -9 13 -11 13 -11 -3 0 -10 -7 -20 -15 -23 -8 -4 -12 -11 -8
-17 4 -6 0 -8 -10 -4 -11 4 -18 -1 -22 -14 -4 -11 -11 -16 -17 -13 -8 5 -9 1
-5 -10 4 -10 3 -15 -3 -11 -6 3 -10 -1 -10 -9 0 -9 -9 -16 -21 -16 -11 0 -17
-4 -14 -10 3 -5 -1 -10 -9 -10 -10 0 -13 -6 -9 -17 4 -11 3 -14 -5 -9 -7 4
-12 2 -12 -3 0 -6 -7 -11 -15 -11 -8 0 -15 -9 -15 -19 0 -11 -9 -23 -20 -26
-18 -6 -24 -17 -21 -37 0 -4 -6 -5 -13 -2 -11 4 -13 0 -9 -17 4 -14 2 -20 -4
-16 -6 4 -14 0 -17 -9 -4 -10 -2 -13 7 -8 8 6 8 3 -1 -9 -8 -9 -11 -20 -8 -25
3 -6 -1 -15 -10 -22 -12 -11 -12 -15 -2 -21 10 -7 11 -9 0 -9 -10 0 -10 -5 -1
-22 12 -22 11 -22 -6 -8 -11 9 -16 10 -11 3 12 -22 15 -53 5 -53 -6 0 -3 -7 5
-16 19 -19 21 -28 4 -18 -10 6 -10 5 -1 -7 6 -8 14 -28 16 -44 2 -17 9 -29 15
-28 6 2 9 -6 7 -17 -2 -11 -1 -20 3 -20 4 0 16 -16 26 -35 14 -25 22 -32 28
-23 5 9 8 7 9 -7 1 -11 1 -23 0 -27 0 -4 7 -4 16 -1 11 4 14 3 9 -5 -4 -7 3
-16 18 -23 16 -8 22 -17 18 -27 -4 -11 -1 -14 11 -9 10 4 16 2 14 -6 -1 -7 3
-11 10 -10 7 2 10 -4 7 -12 -4 -9 0 -15 10 -15 14 0 20 -12 17 -33 0 -4 5 -6
11 -5 7 2 12 -3 10 -9 -1 -7 5 -13 13 -13 9 0 19 -8 22 -17 9 -24 29 -43 37
-36 3 4 6 -1 6 -10 0 -10 5 -17 10 -17 6 0 10 -7 10 -16 0 -8 3 -13 8 -11 4 2
17 -6 29 -19 15 -15 18 -24 10 -27 -7 -3 -2 -6 11 -6 13 -1 20 -5 17 -11 -3
-6 1 -13 9 -16 9 -3 16 -12 16 -20 0 -8 6 -14 14 -14 8 0 18 -5 22 -12 5 -7 3
-8 -6 -3 -9 6 -11 4 -6 -4 5 -7 15 -10 23 -6 13 4 13 3 4 -9 -9 -11 -8 -15 6
-21 10 -5 23 -9 28 -9 6 -1 9 -11 9 -23 -1 -13 2 -20 6 -18 4 3 13 -2 20 -10
7 -8 9 -15 5 -15 -4 0 5 -10 21 -22 16 -13 32 -22 36 -21 4 2 5 -6 3 -17 -2
-13 2 -20 11 -20 8 0 14 -8 14 -17 0 -14 2 -15 9 -4 7 11 10 9 16 -8 3 -12 11
-19 16 -16 5 3 6 -1 3 -10 -4 -9 -3 -15 2 -14 21 4 28 -2 14 -11 -12 -8 -10
-10 8 -10 15 0 21 -4 16 -12 -5 -8 -2 -9 11 -4 16 6 16 4 4 -11 -8 -9 -9 -14
-3 -10 6 3 17 -5 24 -18 7 -13 17 -22 22 -19 4 3 8 -2 8 -10 0 -9 7 -16 15
-16 9 0 19 -8 22 -17 4 -10 15 -25 25 -34 10 -9 18 -20 18 -23 0 -12 27 -35
34 -29 3 4 6 -1 6 -9 0 -8 12 -26 28 -39 15 -13 32 -33 39 -44 6 -11 16 -19
22 -17 9 2 15 -12 9 -20 -4 -6 50 -58 61 -58 6 0 10 -6 9 -12 -2 -7 3 -12 10
-10 6 1 11 -4 10 -10 -2 -7 5 -12 15 -12 14 2 15 -1 6 -12 -9 -11 -8 -14 5
-14 10 0 14 -4 11 -10 -3 -5 1 -10 9 -10 9 0 16 -9 16 -20 0 -11 5 -20 11 -20
14 0 39 -26 39 -41 0 -7 3 -10 6 -6 10 9 34 -19 34 -40 0 -15 2 -16 10 -3 9
13 10 13 11 0 1 -8 1 -19 0 -23 -1 -5 3 -6 9 -2 5 3 10 -2 10 -12 0 -15 2 -16
10 -3 8 12 10 10 10 -8 0 -13 4 -20 10 -17 6 3 10 -4 10 -17 0 -18 2 -20 10
-8 9 13 10 13 11 0 1 -8 1 -18 0 -23 0 -4 5 -6 11 -5 7 2 12 -2 11 -9 -2 -7 4
-10 13 -6 8 3 14 2 12 -3 -4 -15 22 -55 33 -49 5 4 9 -1 9 -9 0 -8 9 -20 20
-26 11 -6 17 -16 14 -22 -5 -7 -2 -9 9 -5 12 4 14 2 10 -10 -5 -12 -2 -15 10
-10 12 4 15 1 12 -15 -3 -11 -2 -18 1 -15 8 8 54 -35 48 -45 -3 -4 3 -8 12 -8
10 0 14 -3 11 -7 -4 -3 3 -11 14 -17 12 -6 21 -14 21 -18 -1 -4 8 -18 21 -31
12 -13 28 -33 36 -45 8 -11 19 -18 25 -15 5 4 7 -1 3 -11 -4 -9 -3 -15 2 -12
5 3 16 -6 25 -19 10 -14 22 -23 28 -19 6 4 8 3 5 -3 -4 -6 5 -23 18 -39 14
-16 25 -33 25 -39 0 -5 5 -3 10 5 8 12 10 10 10 -9 0 -13 3 -22 6 -18 6 6 34
-16 34 -27 0 -12 34 -45 42 -40 4 3 5 -3 1 -12 -4 -12 -3 -15 5 -10 7 4 12 1
12 -9 0 -11 5 -15 16 -11 12 5 14 1 9 -15 -4 -12 -3 -19 2 -16 13 8 45 -32 37
-46 -4 -7 -4 -9 1 -5 13 13 45 -12 45 -35 0 -18 2 -19 10 -7 9 13 10 13 11 0
1 -8 1 -19 0 -23 -1 -5 3 -5 9 -2 7 4 14 -2 17 -14 3 -11 9 -19 13 -16 4 3 10
-4 13 -15 3 -11 13 -20 24 -20 15 0 16 -2 3 -10 -12 -8 -11 -10 8 -10 12 0 21
-3 20 -8 -2 -4 7 -18 19 -31 12 -13 20 -28 17 -32 -3 -5 3 -6 12 -2 14 5 16 3
11 -12 -6 -15 -5 -16 8 -5 13 11 14 10 9 -4 -4 -10 0 -18 10 -22 9 -3 16 -13
16 -21 0 -8 5 -11 10 -8 6 3 10 -1 10 -10 0 -9 5 -13 10 -10 6 3 10 0 10 -8 0
-8 16 -27 35 -42 19 -16 32 -32 29 -37 -3 -4 2 -8 11 -8 11 0 15 -5 11 -15 -5
-14 6 -20 28 -16 5 1 3 -6 -5 -15 -10 -13 -11 -16 -1 -10 14 9 56 -27 45 -38
-4 -3 1 -6 11 -6 11 0 14 -4 10 -12 -5 -8 -2 -9 11 -4 15 5 16 4 6 -8 -7 -9
-8 -17 -2 -20 5 -3 12 0 14 6 3 8 6 6 6 -4 1 -10 6 -18 12 -18 5 0 7 -4 4 -10
-3 -5 1 -10 10 -10 9 0 13 -4 10 -10 -3 -5 -1 -10 5 -10 6 0 8 -5 4 -12 -4 -6
-3 -8 3 -5 12 7 44 -28 35 -39 -4 -5 0 -3 9 4 14 11 16 9 15 -10 -1 -16 4 -23
16 -22 11 1 15 -5 13 -17 -3 -17 1 -20 21 -18 4 0 12 -10 19 -23 6 -13 16 -22
22 -21 6 1 10 -5 9 -15 0 -9 5 -16 12 -14 11 2 14 -4 11 -24 -1 -11 44 -44 52
-38 5 3 6 -1 3 -9 -3 -8 0 -18 7 -23 8 -4 10 -3 5 4 -4 8 -2 10 8 6 8 -3 12
-12 9 -20 -4 -10 2 -17 16 -21 11 -3 18 -9 15 -14 -3 -5 2 -9 11 -9 9 0 14 -4
11 -9 -3 -5 2 -8 12 -7 9 0 16 -4 15 -11 -2 -8 8 -11 26 -8 16 2 38 -3 48 -11
23 -17 47 -18 37 -1 -6 9 -4 9 7 0 17 -17 71 -17 88 -1 11 10 12 10 7 1 -5 -9
-2 -11 8 -7 9 3 16 10 16 14 0 5 9 7 21 5 15 -3 19 0 15 10 -3 9 1 12 15 10
11 -2 22 2 26 10 3 8 10 12 16 8 7 -4 8 0 4 11 -5 14 -3 17 8 12 9 -3 15 0 15
10 0 8 5 12 10 9 6 -3 10 1 10 9 0 9 5 16 10 16 6 0 10 7 10 15 0 8 5 14 12
13 6 -2 17 8 25 22 7 14 13 21 13 17 0 -4 6 -2 14 5 8 7 12 16 9 21 -2 4 1 7
7 7 6 0 8 5 4 13 -5 7 -2 7 10 -2 9 -8 16 -10 15 -5 -4 17 13 44 28 44 8 0 11
4 8 10 -3 5 3 15 15 22 11 7 20 19 20 26 0 7 3 11 8 9 10 -5 42 30 34 38 -3 3
4 8 16 12 12 3 19 9 16 14 -3 5 2 9 10 9 10 0 13 6 9 17 -4 10 -2 14 4 10 15
-9 46 22 39 39 -3 8 0 11 10 7 9 -3 14 1 14 12 0 9 5 13 10 10 6 -3 10 -1 10
6 0 18 51 69 69 69 14 0 14 1 1 10 -13 8 -12 10 3 10 11 0 21 9 24 20 3 11 10
17 16 13 7 -4 8 0 3 12 -6 16 -4 16 11 4 10 -9 14 -9 10 -2 -5 8 13 33 47 66
36 36 51 58 45 64 -7 7 -2 9 15 8 15 -2 24 1 20 6 -3 5 2 12 11 15 9 4 22 19
31 35 8 16 21 29 29 29 8 0 14 6 12 13 -1 6 4 11 11 9 8 -1 11 2 7 8 -3 5 -1
10 5 10 6 0 8 5 5 10 -6 9 8 14 27 11 5 0 7 3 5 8 -1 5 10 23 26 40 15 17 27
36 27 43 0 9 3 8 10 -2 8 -12 10 -10 10 8 0 13 4 20 10 17 6 -3 10 -1 10 5 0
6 5 8 12 4 8 -5 9 -2 5 9 -4 12 -1 17 9 17 10 0 14 6 11 14 -4 10 -1 13 9 9
10 -4 17 2 21 16 3 11 12 21 20 21 8 0 12 4 9 9 -3 5 1 11 9 15 8 3 15 12 15
21 0 14 12 20 34 16 5 -1 4 5 -3 13 -11 13 -9 15 9 11 13 -2 20 -2 17 2 -4 3
5 14 18 25 14 11 25 24 25 30 0 6 20 30 44 53 25 23 42 45 39 49 -4 3 -1 6 6
6 14 0 47 30 34 30 -4 0 0 5 10 11 9 5 17 18 17 27 0 15 2 15 10 2 7 -11 10
-11 10 -2 0 8 5 10 13 6 7 -5 7 -1 -3 12 -8 10 -11 16 -6 12 9 -8 96 74 90 84
-3 5 0 8 6 8 6 0 8 5 4 13 -5 7 0 6 11 -3 10 -8 16 -10 12 -3 -5 7 2 22 15 35
13 13 22 26 21 30 -2 5 4 8 13 8 10 0 14 6 11 14 -4 9 -1 13 6 10 7 -2 17 6
22 18 6 13 15 22 20 21 10 -1 40 27 40 37 0 3 3 4 8 3 4 -2 7 3 7 10 0 7 9 18
20 25 11 7 20 19 20 27 0 8 5 14 12 12 7 -1 13 4 14 11 3 26 5 27 15 12 9 -12
10 -11 6 8 -3 15 0 22 9 22 8 0 14 5 14 11 0 5 5 7 10 4 6 -3 10 3 10 15 0 12
5 18 10 15 6 -3 10 -1 10 5 0 6 4 9 9 6 5 -3 14 8 21 24 7 17 15 28 18 26 6
-7 32 20 32 34 0 6 5 8 10 5 9 -6 15 8 11 29 -1 5 6 3 15 -5 10 -8 15 -9 11
-3 -8 13 21 56 33 49 5 -3 12 0 16 6 5 8 2 10 -7 5 -8 -4 -6 -1 5 8 10 8 15
20 10 27 -4 8 -3 10 5 5 6 -4 14 0 17 8 3 9 10 13 15 10 5 -3 9 2 9 10 0 9 7
16 15 16 9 0 12 6 8 18 -3 9 -3 14 1 10 10 -8 56 36 56 54 0 9 3 9 10 -2 8
-12 10 -10 10 8 0 13 4 21 9 18 5 -3 12 1 15 10 3 8 11 12 17 8 8 -4 9 -3 5 5
-5 8 6 24 28 43 23 19 35 37 31 46 -5 13 -3 13 12 1 11 -9 14 -10 9 -1 -4 6
-2 12 3 12 6 0 11 6 11 14 0 8 5 18 12 22 7 5 8 3 3 -6 -5 -9 -4 -11 3 -6 7 4
12 17 12 29 0 16 3 18 9 9 6 -11 10 -10 16 5 5 10 9 23 9 28 1 6 11 9 24 9 19
-1 21 1 10 15 -7 9 -9 13 -4 9 10 -8 56 31 56 49 0 7 6 12 13 10 6 -1 11 4 10
11 -2 6 5 12 15 12 14 0 15 2 2 10 -13 9 -13 10 0 10 9 0 22 9 30 20 8 11 20
20 27 20 7 0 13 10 13 22 0 12 3 18 7 15 3 -4 13 2 20 13 8 12 20 17 26 13 7
-4 6 0 -2 10 -12 15 -11 17 8 17 12 0 19 4 16 10 -3 6 1 10 9 10 9 0 16 9 16
20 0 13 5 18 15 14 11 -5 13 -2 9 10 -5 12 -2 15 10 10 12 -5 15 -2 10 10 -5
12 0 16 17 17 13 0 18 3 12 6 -10 3 -10 8 1 19 8 8 19 14 25 14 6 0 10 6 9 13
-2 6 3 11 10 9 6 -1 12 5 12 14 0 9 5 12 13 8 7 -5 6 0 -3 11 -10 12 -10 16
-2 11 8 -5 23 2 40 20 15 15 20 24 12 19 -8 -4 -6 1 5 12 13 14 22 16 27 9 5
-7 8 -7 8 2 0 7 7 20 15 29 8 8 12 19 9 25 -4 7 -2 8 4 4 7 -4 12 -1 12 8 0 9
9 16 20 16 12 0 17 5 14 14 -3 8 0 17 7 22 8 5 10 3 4 -7 -8 -12 -6 -12 8 0 9
7 14 17 11 22 -5 8 10 13 29 10 5 -1 6 3 3 8 -8 12 33 63 45 55 5 -3 8 0 7 8
-2 7 2 12 8 11 7 -1 15 9 18 23 4 14 11 22 17 18 6 -3 13 3 16 15 3 11 9 18
14 15 8 -5 13 9 10 29 0 4 2 6 6 6 21 -3 33 3 33 17 0 8 5 12 10 9 6 -3 10 1
10 10 0 8 7 18 15 21 8 4 12 10 9 15 -3 5 2 9 10 9 9 0 15 6 14 13 -2 6 3 11
10 9 6 -1 12 5 12 14 0 8 4 13 9 9 5 -3 12 3 16 14 3 11 12 22 20 25 8 3 15
13 15 23 0 15 2 16 10 3 8 -12 10 -12 10 -1 0 16 46 61 63 61 7 0 6 4 -3 10
-13 8 -12 10 3 10 15 0 22 11 18 33 -1 5 2 6 7 3 5 -3 15 6 22 19 7 14 17 25
22 25 5 0 6 -5 2 -12 -5 -7 -3 -8 5 -4 7 5 10 14 7 22 -3 8 0 13 6 11 7 -1 12
5 13 13 0 8 8 14 18 14 9 -1 14 2 11 7 -3 5 0 9 6 9 7 0 10 7 7 14 -4 10 -1
13 9 9 10 -4 12 0 7 13 -4 12 -3 15 5 10 7 -4 15 -1 18 8 3 9 13 16 21 16 8 0
11 5 8 10 -3 6 2 10 12 10 15 0 16 2 3 10 -11 7 -12 10 -2 10 7 0 20 7 28 15
9 8 13 15 10 15 -3 0 2 8 12 18 9 11 20 17 25 15 4 -2 7 5 7 16 0 11 5 23 12
27 6 4 8 3 4 -4 -3 -6 -2 -14 4 -17 6 -4 10 -3 9 2 -3 20 2 34 11 28 6 -3 10
-2 10 4 0 5 11 23 25 38 46 52 50 58 47 65 -4 13 16 9 21 -4 3 -7 6 -3 6 10 1
14 7 22 19 22 14 0 15 2 2 10 -12 8 -11 10 7 10 17 0 21 4 16 18 -3 9 -3 14 1
10 10 -8 40 20 49 45 4 10 11 16 16 12 5 -3 12 -1 16 5 3 5 0 10 -7 10 -7 0 2
8 20 16 17 9 32 21 32 26 0 5 -5 6 -12 2 -7 -5 -8 -3 -4 5 5 7 14 10 22 7 9
-3 14 2 14 14 0 14 7 20 23 21 12 0 17 3 10 5 -7 3 0 16 18 33 16 16 29 33 29
40 0 6 4 10 8 9 15 -5 93 83 85 95 -4 7 1 6 11 -2 9 -8 16 -10 15 -5 -4 22 2
35 13 28 8 -5 9 -2 5 9 -3 9 -3 16 1 16 20 -3 32 2 29 14 -1 6 4 11 11 9 8 -1
11 2 7 8 -3 5 -1 10 5 10 6 0 8 5 5 10 -6 9 8 14 27 11 5 0 7 2 7 7 -3 19 2
33 11 27 6 -3 10 1 10 10 0 9 4 14 9 10 5 -3 16 4 24 15 7 11 18 17 23 12 4
-4 2 2 -6 12 -10 13 -10 17 -2 12 7 -4 12 -2 12 4 0 6 5 8 12 4 7 -5 9 -2 5 9
-4 11 -2 14 9 10 12 -5 19 7 15 29 0 5 4 7 11 5 7 -1 12 3 13 10 0 6 4 15 9
20 5 4 6 3 2 -4 -3 -6 -2 -14 4 -18 5 -3 10 3 10 14 0 12 5 21 11 21 5 0 7 5
4 10 -3 6 -1 10 5 10 6 0 18 7 26 15 12 12 12 15 2 15 -10 0 -10 3 2 9 8 6 18
7 22 5 4 -3 8 7 8 23 0 22 2 25 10 13 8 -12 10 -12 10 -1 0 7 10 23 23 35 13
12 22 27 19 34 -2 7 3 15 12 18 9 3 13 10 10 15 -3 5 -2 9 3 9 11 0 33 52 38
87 2 16 4 33 5 38 1 6 1 12 0 15 -10 27 -7 41 8 36 9 -4 6 3 -8 14 -14 11 -19
20 -12 20 7 0 10 5 7 10 -4 6 -11 8 -16 5 -5 -3 -6 0 -3 8 3 8 -2 21 -10 30
-12 12 -13 17 -3 20 9 4 9 6 -1 6 -8 1 -10 6 -6 14 5 7 0 6 -11 -3 -17 -14
-18 -13 -13 8 4 15 2 22 -8 22 -8 0 -14 7 -14 15 0 8 -5 15 -11 15 -6 0 -8 7
-5 16 4 12 2 15 -9 10 -8 -3 -15 0 -15 7 0 7 -9 19 -20 27 -11 8 -20 20 -20
28 0 7 -3 11 -7 9 -10 -6 -53 39 -46 47 4 3 1 6 -6 6 -7 0 -9 5 -5 13 5 7 2 7
-10 -2 -9 -8 -16 -10 -15 -5 4 21 -2 35 -11 29 -5 -3 -10 -1 -10 5 0 6 -4 8
-10 5 -6 -3 -7 1 -4 9 4 11 0 16 -12 16 -16 0 -17 2 -4 10 13 8 12 10 -3 10
-10 0 -20 7 -23 15 -4 8 -11 12 -17 8 -6 -4 -8 0 -4 10 6 16 3 18 -33 21 -9 1
-14 9 -12 21 3 16 1 17 -11 6 -12 -9 -17 -9 -23 0 -5 8 -3 9 6 4 9 -5 11 -4 6
3 -4 7 -14 12 -22 12 -8 0 -13 6 -11 13 1 6 -6 11 -15 11 -10 -1 -15 3 -12 8
3 5 -3 12 -15 15 -11 3 -18 9 -15 14 3 5 -2 9 -10 9 -9 0 -16 5 -16 10 0 6 -6
10 -13 10 -7 0 -19 9 -27 19 -7 11 -17 18 -22 15 -4 -3 -8 3 -8 13 0 15 -2 16
-10 3 -8 -13 -10 -12 -10 4 0 11 -3 17 -6 13 -8 -7 -34 17 -34 32 0 6 -7 7
-17 4 -11 -4 -14 -3 -9 5 4 7 1 12 -9 12 -19 0 -45 23 -45 40 0 6 -5 8 -12 4
-6 -4 -21 5 -35 22 -17 21 -22 23 -17 9 5 -16 2 -15 -12 5 -11 14 -25 25 -31
26 -35 3 -38 4 -23 14 11 7 7 8 -15 6 -17 -2 -38 0 -47 5 -10 6 -19 5 -23 -1
-4 -6 -16 -3 -33 8 -14 9 -23 11 -19 5z m-2270 -2368 c-3 -9 -8 -14 -10 -11
-3 3 -2 9 2 15 9 16 15 13 8 -4z m-4062 -1162 c13 -16 12 -17 -3 -4 -10 7 -18
15 -18 17 0 8 8 3 21 -13z m1950 -60 c13 -16 12 -17 -3 -4 -10 7 -18 15 -18
17 0 8 8 3 21 -13z m1839 -1267 c0 -2 -8 -10 -17 -17 -16 -13 -17 -12 -4 4 13
16 21 21 21 13z"/>
<path d="M14095 7890 c3 -5 8 -10 11 -10 2 0 4 5 4 10 0 6 -5 10 -11 10 -5 0
-7 -4 -4 -10z"/>
<path d="M7896 6958 c3 -5 10 -6 15 -3 13 9 11 12 -6 12 -8 0 -12 -4 -9 -9z"/>
<path d="M7751 4164 c0 -11 3 -14 6 -6 3 7 2 16 -1 19 -3 4 -6 -2 -5 -13z"/>
<path d="M7070 3556 c0 -2 8 -10 18 -17 15 -13 16 -12 3 4 -13 16 -21 21 -21
13z"/>
<path d="M10639 2383 l-24 -28 28 24 c15 14 27 26 27 28 0 8 -8 1 -31 -24z"/>
<path d="M9907 1839 c7 -7 15 -10 18 -7 3 3 -2 9 -12 12 -14 6 -15 5 -6 -5z"/>
</g>
</svg>
